<svg xmlns="http://www.w3.org/2000/svg" version="1.1" style="background-color:#fff;-webkit-font-smoothing:antialiased" width="850" height="600" font-family="'Helvetica Neue',Helvetica,Arial,sans-serif" font-size="18" text-rendering="optimizeLegibility"><g class="mapTab"><g class="HeaderView"><g opacity=".8" transform="matrix(.27 0 0 .27 778 15)"><a xmlns:xlink="http://www.w3.org/1999/xlink" xlink:href="https://ourworldindata.org" target="_blank"><g><path fill="#1B2543" d="M0 0h211.2v130.1H0z"/><path fill="#E63912" d="M0 112.2h211.2v17.9H0z"/><g><path fill="none" d="M1.2 12.3h210.2v99.2H1.2z"/><path fill="#FFF" d="M37.8 32.2c0 12.7-7.7 19.4-17.1 19.4-9.7 0-16.6-7.5-16.6-18.7 0-11.7 7.3-19.3 17.1-19.3 10.1.1 16.6 7.7 16.6 18.6zm-28.6.6c0 7.9 4.3 14.9 11.8 14.9 7.5 0 11.8-6.9 11.8-15.3 0-7.3-3.8-14.9-11.8-14.9-7.9 0-11.8 7.3-11.8 15.3zM62.7 43.8c0 2.7.1 5.1.2 7.2h-4.3l-.3-4.3h-.1c-1.3 2.1-4 4.9-8.8 4.9-4.2 0-9.1-2.3-9.1-11.6V24.6h4.8v14.6c0 5 1.5 8.4 5.9 8.4 3.2 0 5.5-2.2 6.3-4.4.3-.7.4-1.6.4-2.5V24.6h4.8v19.2zM67.3 32.8c0-3.1-.1-5.8-.2-8.2h4.2l.2 5.2h.2c1.2-3.5 4.1-5.8 7.3-5.8.5 0 .9.1 1.4.2v4.5c-.5-.1-1-.2-1.6-.2-3.4 0-5.8 2.6-6.5 6.2-.1.7-.2 1.4-.2 2.2V51h-4.8V32.8zM95.4 51L86 14.2h5l4.4 18.6c1.1 4.6 2.1 9.2 2.7 12.7h.1c.6-3.7 1.8-8 3-12.8l4.9-18.5h5l4.5 18.7c1 4.4 2 8.7 2.6 12.6h.1c.8-4 1.8-8.1 3-12.7l4.9-18.5h4.9L120.6 51h-5L111 31.9c-1.1-4.7-1.9-8.3-2.4-12h-.1c-.7 3.7-1.5 7.3-2.8 12L100.4 51h-5zM154.9 37.6c0 9.8-6.8 14-13.2 14-7.2 0-12.7-5.2-12.7-13.6 0-8.8 5.8-14 13.1-14 7.7 0 12.8 5.5 12.8 13.6zm-21 .3c0 5.8 3.3 10.1 8 10.1 4.6 0 8-4.3 8-10.3 0-4.5-2.2-10.1-7.9-10.1s-8.1 5.2-8.1 10.3zM158.2 32.8c0-3.1-.1-5.8-.2-8.2h4.2l.2 5.2h.2c1.2-3.5 4.1-5.8 7.3-5.8.5 0 .9.1 1.4.2v4.5c-.5-.1-1-.2-1.6-.2-3.4 0-5.8 2.6-6.5 6.2-.1.7-.2 1.4-.2 2.2V51h-4.8V32.8zM173.5 12.3h4.8V51h-4.8V12.3zM206.5 12.3v31.9c0 2.3.1 5 .2 6.8h-4.3l-.2-4.6h-.2c-1.5 2.9-4.7 5.2-9 5.2-6.4 0-11.3-5.4-11.3-13.4-.1-8.8 5.4-14.2 11.9-14.2 4 0 6.8 1.9 8 4h.1V12.3h4.8zm-4.8 23.1c0-.6-.1-1.4-.2-2a7 7 0 00-6.9-5.6c-5 0-7.9 4.4-7.9 10.2 0 5.3 2.6 9.8 7.8 9.8 3.2 0 6.2-2.1 7.1-5.7.2-.7.2-1.3.2-2.1v-4.6zM42.8 64c.1 1.6-1.1 2.9-3.1 2.9-1.7 0-2.9-1.3-2.9-2.9 0-1.7 1.3-3 3-3 1.9 0 3 1.3 3 3zm-5.4 33.8V71.4h4.8v26.4h-4.8zM47.5 78.6c0-2.7-.1-5-.2-7.1h4.3l.3 4.4h.1c1.3-2.5 4.4-5 8.8-5 3.7 0 9.4 2.2 9.4 11.2v15.8h-4.8V82.6c0-4.3-1.6-7.8-6.1-7.8-3.2 0-5.6 2.2-6.5 4.9-.2.6-.3 1.4-.3 2.2v15.9h-4.8V78.6zM84 61.6c2.9-.4 6.3-.8 10.1-.8 6.8 0 11.7 1.6 14.9 4.6 3.3 3 5.2 7.3 5.2 13.2 0 6-1.9 10.9-5.3 14.3-3.4 3.4-9.1 5.3-16.3 5.3-3.4 0-6.2-.2-8.6-.4V61.6zm4.8 32.5c1.2.2 3 .3 4.8.3 10.2 0 15.7-5.7 15.7-15.6.1-8.7-4.9-14.2-14.9-14.2-2.5 0-4.3.2-5.6.5v29zM132.1 97.8l-.4-3.3h-.2a9.79 9.79 0 01-8.1 3.9c-5.4 0-8.1-3.8-8.1-7.6 0-6.4 5.7-9.9 15.9-9.8v-.5c0-2.2-.6-6.1-6-6.1-2.5 0-5 .8-6.9 2l-1.1-3.2c2.2-1.4 5.4-2.3 8.7-2.3 8.1 0 10.1 5.5 10.1 10.8v9.9c0 2.3.1 4.5.4 6.3h-4.3zm-.7-13.4c-5.3-.1-11.2.8-11.2 5.9 0 3.1 2.1 4.6 4.5 4.6 3.4 0 5.6-2.2 6.4-4.4.2-.5.3-1 .3-1.5v-4.6zM146.6 63.9v7.6h6.9v3.7h-6.9v14.2c0 3.3.9 5.1 3.6 5.1 1.3 0 2.2-.2 2.8-.3l.2 3.6c-.9.4-2.4.7-4.3.7-2.2 0-4-.7-5.2-2-1.4-1.4-1.9-3.8-1.9-6.9V75.1h-4.1v-3.7h4.1v-6.3l4.8-1.2zM171.4 97.8l-.4-3.3h-.2a9.79 9.79 0 01-8.1 3.9c-5.4 0-8.1-3.8-8.1-7.6 0-6.4 5.7-9.9 15.9-9.8v-.5c0-2.2-.6-6.1-6-6.1-2.5 0-5 .8-6.9 2l-1.1-3.2c2.2-1.4 5.4-2.3 8.7-2.3 8.1 0 10.1 5.5 10.1 10.8v9.9c0 2.3.1 4.5.4 6.3h-4.3zm-.7-13.4c-5.3-.1-11.2.8-11.2 5.9 0 3.1 2.1 4.6 4.5 4.6 3.4 0 5.6-2.2 6.4-4.4.2-.5.3-1 .3-1.5v-4.6z"/></g></g></a></g><a href="https://ourworldindata.org/grapher/number-of-reported-smallpox-cases" target="_blank"><text font-size="25.2" x="15" y="35.2" fill="#555"><tspan x="15" y="35.16">Number of reported smallpox cases, 1950</tspan></text></a><text font-size="14.4" x="15" y="53.7" fill="#666"><tspan x="15" y="53.72">This includes endemic and imported cases, therefore some countries still recorded some cases after the official year</tspan><tspan x="15" y="69.56">of eradication.</tspan></text></g><g class="mapTab"><g clip-path="url(#a)" class="ChoroplethMap"><defs><clipPath id="a"><path d="M15 77.1h820v429.5H15z"/></clipPath></defs><g transform="matrix(.8769 0 0 .8769 -58.7 101.8)" class="subunits">0<g class="noDataFeatures" stroke-width=".34" stroke="#aaa" cursor="pointer" fill="#eee"><path d="M531.4 126.9v.8l-.8.4v1l-1 1.4-.5-.2-.1-.6-1.4-1-.3-1.5v-2l.2-.9-.4-.5-.3-.9 1-1.5.2.6.6-.3.6.8.6.3.3 1.1-.3 1 .5 1.3zM613.9 176.9l.4-.2.2.9 2-.5 2.2.1 1.5.1 1.6-2.1 1.8-1.9 1.4-1.9.6 1.1.6 2.3h-1.3v2l.5.4-1.2.6.1 1.3-.6 1.2v1.2l-.4.7-8-1.6-1.2-3zM586.4 126.2l3.3-.5.7.8 1 .5-.4.7 1.5 1.1-.5.9 1.2.8 1.2.5.5 2.1-.9.1-1.3-1.7-.1-.5h-1.1l-.9-.8-.5.1-1.1-.9-2-.7v-1.5zM640.9 396.2l1.1.9 2.1.4-.1.5-1.2 1.4-3.6.1.5-1.5.8-1.2zM835.5 373l1.7 1 1.6-.4 2.3-.6 1.3.2-2.1 3.5-1.5 1.1-1.9 2.4-.3-.8-3.1 2-.4-.1-1.4-.1.2-2.6 1-1.9.3-2.6.9-1.4zm23.7-81.5l.6 2.4 1.9-1.2.6 1.3 1.1 1.2-.5 1.3.1 2.6.1 1.5.6.4.2 2.6-.6 1.5.4 2.1 2.5 1.5 1.5 1.5 1.5 1.3-.5.7 1 1.9.3 3.3 1.2-.7.7 1.3.8-.4-.4 3.2 1.4 1.8.9 1.2 1.4 2.4-.1 2.4-.5 1.7-.8 1.9.3 2.6-1.1 2.6-1 1.4-1.8 2.7-.7 1.8-1.4 2.1-2.4 2.8-2.6 1.4-2 2.4-1.6 1.5-2.1 2.6-1.7 1.5-1.9 2.2-1.4 2.1-.4.9-2 1.1-2.9.1-2.9 1.2-1.8 1.2-2.3 1.3-1.3-1.3-1.2-.6 1.3-1.5-1.7.5-3.4 2.2-1.7-.8-1.1-.5-1.3-.2-1.9-.9-.6-1.8.7-2.3.1-1.5-.6-1.2-2.2-.4 1.5-1.5.4-2.2-2.2 2.1-2.5.5 2.1-1.6 1.2-1.8 1.7-1.4.7-2.3-3.1 2.6-2.1 1-2 2.4-1.4-1.2.8-1.6-.7-2.2-.8-1.1.7-.7-2.5-1.9h-1.7l-1.9-1.5-4.7.3-3.7 1-3.2 1.1-2.4-.2-3.3 1.5-2.4.7-1.1 1.6-1.5 1.2-2.1.1-1.7.2-2-.5-2 .3-1.8.2-2.1 1.6-.7-.2-1.6.9-1.6.9-1.8-.1h-1.7l-1.9-1.9-1.1-.6.7-1.7 1.4-.4.7-.7.3-1.1 1.1-2.1.3-1.8-.4-3 .2-1.7.6-1.8-.5-1.9.2-.9-.8-1.2.3-2.4-.9-2.4v-1.2l.8 1.3-.2-2.8 1.1.8.5 1.2.3-1.5-.7-2.4-.1-1-.4-.9.6-1.7.7-.7.6-1.6.1-1.7 1.4-2.2-.2 2.3 1.5-2.1 2.3-1 1.5-1.3 2.2-1.1 1.2-.2.7.4 2.2-1.2 1.7-.3.5-.7.7-.2h1.5l2.9-.8 1.7-1.4.9-1.6 1.8-1.5.4-1.2.3-1.7 2.3-2.5.7 2.6 1.2-.6-.7-1.4 1-1.5 1.1.6.7-2.3 1.6-1.4.8-1.2 1.4-.5.2-.9 1.1.4.2-.8 1.2-.4 1.3-.4 1.8 1.4 1.2 1.7 1.6.1 1.7.2-.4-1.6 1.6-2.4 1.3-.8-.3-.8 1.4-1.7 1.7-1.1 1.3.4 2.3-.6.2-1.5-1.9-1 1.5-.4 1.7.7 1.2 1.2 2.2.8.8-.3 1.5.9 1.6-.8 1 .2.7-.5 1 1.5-.9 1.6-1.2 1.2-.9.1.1 1.2-.9 1.5-1.2 1.5v.8l1.9 1.7 1.8 1 1.2 1 1.6 1.8h.7l1.3.8.2.9 2.3 1 2-1 .8-1.6.8-1.4.6-1.6 1.2-2.4-.1-1.5.3-.9-.1-1.7.7-2.3.6-.6-.3-1 .9-1.6.7-1.6.2-.9 1.1-1.1.5 1.4v1.9l.6.4v1.3l.7 1.5v1.7z"/><path d="M594 133.2l-1.8-.4-1.5-1.4-.6-1.1.5-.1.9.8h1.1l.1.5zm3-8l1.2-1.2 1.6 1.6 1.7 2.1 1.1.1 1 .9-2 .2v2.3l-.2 1.1-.8.7.4 1.5-.6.1-1.8-1.6.5-1.4-.9-.9-.8.2-2.5 2.2-.5-2.1-1.2-.5-1.2-.8.5-.9-1.5-1.1.4-.7-1-.5-.7-.8.5-.5 2 .9 1.3.1.3-.3-1.5-1.6.5-.4.7.1 2.1 1.8 1.1.2zM558.1 263.6l-.2-3.7-.6-1.3 1.6.2.8-1.7 1.4.2.2 1.2.6.7v.9l-.7.7-1 1.5-1 1.1zM487.2 231.1l-2.2.4-.7-2.1.1-6.9-.5-.7-.1-1.4-.9-1.1-.9-.9.4-1.6.9-.3.5-1.3 1.3-.3.6-.9.9-.9h.9l2.1 1.7-.1 1 .6 1.8-.6 1.2.3.9-1.3 1.8-.8.9-.5 1.9.1 2z"/><path d="M472.5 220.9l-1.8-.8-1.3.2-.9.7-1.2-.6-.4-1-1.2-.7-.2-1.7.7-1.3v-1l2.1-2.5.4-2.1.7-.7 1.3.4 1.1-.6.4-.8 2-1.4.5-.9 2.5-1.3 1.4-.4.7.6h1.7l-.2 1.4.3 1.4 1.5 2 .1 1.4 3.1.7-.1 2.1-.6.9-1.3.3-.5 1.3-.9.3h-2.3l-1.3-.3-.8.5-1.2-.2-4.6.1-.1 1.8zM278.5 178.3l-.6.2-.5-1.7-.8-.9.8-1.9.8.1.6 2.5zm.6-8.5l-2.9.5v-1.1l1.2-.2 1.7.1zm2.1 0l-.8 2.2-.4-.4.3-1.6-1-1.2.1-.3zM525.4 114.9h.9l-.5 1.3 1.3 1.2-.3 1.4-.5.1-.4.3-.8.7-.2 1.6-2.2-1.1-1-1.3-1-.6-1.2-1.1-.6-1-1.3-1.4.4-1.2 1 .7.4-.6 1.1-.1 2.1.5h1.7zM532.7 88.5h2.2l2.2-1.1.3-1.6 1.7-.9-.5-1.3 1.3-.4 2.2-1.1 2.4.7.5.7 1.1-.4 2.3.7.4 1.3-.3.8 1.8 1.9 1 .5v.5l1.6.5.8.8-.7.6-1.9-.1-.4.3.8 1 .9 1.8-2 .2-.5.6.1 1.5-1-.3-2 .1-.7-.7-.8.5-.9-.4h-1.9l-2.6-.7-2.4-.2H536l-1.1.8-1.1.1-.2-1.3-.9-1.3 1.2-.6-.1-1.1-.8-1.1zM245.9 196.3v-.4l.3-.2.5.4 1.2-1.9h.5l-.1.5h.5l-.1.8-.6 1.3.1.5-.4 1 .2.3-.5 1.5-.6.8-.5.1-.6 1.1h-.8l.6-3.4zM783.9 236.4l1-1.2 2.2-1.6-.1 1.5v1.9l-1.3-.1-.5 1zM716 166.2l1.3 1 .2 1.9-2.1.1-2.2-.2-1.6.4-2.5-1.1-.2-.6 1.2-2.3 1.3-.7 2 .7h1.3zM556.7 316.6l-3.8 2.2-2.4 2.3-1 2-.8 1.1-1.4.3-.5 1.4-.4 1-1.6.7-2.1-.2-1.2-.8-1.1-.4-1.3.7-.7 1.4-1.3 1-1.3 1.3-1.9.3-.5-1.1.3-1.8-1.4-2.9-.7-.4.3-8.8 2.6-.1.4-10.8 1.9-.1 4.1-1 1 1.2 1.7-1.2h.8l1.5-.6.5.2.9 2.4.5.5.7 1.8 2.9 3.3 1.1.3-.1 1.1.7 1.9 2 .5zM520.6 227.6l2.2-.2.5-.8.4.1.7.7 3.3-1.2 1.1-1.2 1.4-1-.3-1.1.8-.3 2.5.2 2.5-1.4 1.9-3.3 1.3-1.2 1.7-.5.3 1.3 1.6 1.9v1.2l-.4 1.3.2.9.9.9 2 1.3 1.5 1.2v1l1.9 1.6 1.1 1.3.7 1.8 2 1.2.4.9-.9.3h-1.7l-2-.4-1 .3-.4.7-.8.1-1.1-.6-2.9 1.5-1.2-.3-.4.2-.8 1.8-2-.5-1.9-.3-1.7-1.1-2.2-1.1-1.4 1-1.1 1.5-.2 2.1-1.7-.1-1.8-.5-1.6 1.6-1.4 2.8-.2-.9-.2-1.4-1.2-1-1-1.5-.2-1.1-1.3-1.6.2-.9-.2-1.2.1-2.4.7-.5z"/><path d="M472.4 234.9l-1.2.1-1.9-.6h-1.7l-3.1.5-1.9.9-2.6 1.1-.5-.1.2-2.4.2-.4v-1.2l-1.2-1.3-.8-.2-.8-.8.6-1.3-.2-1.5.1-.9h.4l.2-1.3-.2-.6.2-.4 1-.4-.6-2.4-.6-1.2.2-1 .5-.3.4-.3.7.5h2l.5-.9.5.1.8-.3.4 1.3.6-.4 1.1-.5 1.2.7.4 1 1.2.6.9-.7 1.3-.2 1.8.8.7 4.3-1.1 2.5-.7 3.5 1.1 2.5zM514.6 264.4l-1-1-.8.5-1.1 1.3-2.2-3.2 2.1-1.7-1-2 .9-.7 1.8-.4.2-1.3 1.4 1.4 2.4.2.8-1.5.3-2-.3-2.3-1.2-1.8 1.1-3.5-.6-.6-2 .2-.8-1.5.2-1.3 3.4.1 2.1.8 2.2.7.1-1.6 1.4-2.8 1.6-1.6 1.8.5 1.7.1-.1 1.9-.8 1.6-.5 1.8-.4 2.7.2 1.7-.4 1.1-.1 1.1-.3.9-1.8 1.5-1.2 1.6-1.2 2.9.1 2.5-.7.9-1.5 1.5-1.6 1.9-1-.5-.2-.9h-1.4l-.9 1.1zM266 180.1l2.2.2h2.1l2.3 1 .9 1.2 2.4-.4.9.7 1.9 1.9 1.5 1.3h.9l1.5.6-.3.9 1.9.1 1.8 1.2-.4.7-1.8.4-1.7.2-1.8-.3-3.8.3 2-1.7-1-.7-1.7-.2-.8-.9-.4-1.7-1.5.1-2.3-.8-.7-.7-3.3-.4-.9-.6 1.1-.8-2.5-.1-2.1 1.5-1.1.1-.5.7-1.3.4-1.1-.3 1.5-1 .7-1.1 1.3-.6 1.4-.6 2-.3zM562.2 144h.1l.3-.7h1.8l2.2-.9-1.6 1.3.3.6.1.2-2.4 1.2-1.3-.4-.7-1.2zM519.6 103.9l-1.1-.5-1.1.1-1.9-.9-.8.2-1.2 1.2-1.8-.9-1.4-1.3-1.3-.7-.3-1.2-.5-.9 1.7-.6.8-.7 1.6-.6.5-.6.6.4 1-.3 1.2.9 1.8.3-.1.8 1.3.6.3-.8 1.6.3.3 1 1.7.1 1.2 1.5h-.7l-.3.5-.5.1-.1.7-.4.1v.3l-.8.3h-1zM593.9 211.7l.7.9v1.3l-1.5.7 1.2.8-1 1.6-.6-.5-.6.2h-1.5l-.1-.9-.2-.9.8-1.4.9-1.3 1.2.2zM508.1 83.6l-1.2 2.3-2.4-1.6-.4-1.1 3.2-1zm-6 1.8l-1.4.5-1.7-.4-1-1.6-.2-2.9.3-.7.6-.9 1.9-.2.7-.7 1.7-.8v1.4l-.6.9.4.8 1.2.4-.5 1.1-.7-.3-1.4 2zM405.9 16.6l6-1.1 5.4.1 2.4-.6 5.6-.2 12.4.2 9.3 1.4-3.1.7-6.2.1-8.6.1.6.4 5.8-.2 4.6.6 3.3-.6 1.1.7-2.1 1.1 4.3-.7 8-.7 4.7.3.8.8-6.9 1.4-1 .4-5.4.4 3.8.1-2.3 1.5-1.7 1.4-.6 2.5 1.7 1.4-2.7.1-3 .7 2.9 1.2v2l-2 .2 1.9 2-4 .2 1.8 1-.7.8-2.7.4h-2.6l2 1.7-.2 1-3.5-1-1.1.7 2.4.6 2.1 1.5.3 2-3.5.5-1.2-1-2-1.4.2 1.7-2.5 1.3 5 .1 2.6.1-5.6 2.2-5.8 2.1-5.9.8h-2.2l-2.3 1-3.5 2.8-4.8 1.8-1.4.1-2.9.7-3.1.6-2.2 1.6-.7 1.9-1.6 1.8-4 2.1.1 2.1-1.7 2.3-1.9 2.7-3 .1-2.4-2.2h-4.2l-1.5-1.5-.4-2.7-2.3-3.3-.3-1.8.7-2.4-1.7-2.4 1.5-1.9-.9-.9 3.3-3.1 3.4-.9 1.2-1.1 1.3-2-2.6.9-1.2.4-1.9.4-2-.9.8-1.7 1.4-1.3h1.8l3.5.6-2.5-1.5-1.2-.9-2.1.4-1.2-.7 3.3-2.2-.6-.9-.5-1.7-.7-2.5-1.7-1 .6-.9-3.8-1.4-3.6-.1-4.8.1-4.4.1-1.5-.7-1.8-1.4 5.1-.7 3.6-.1-6.9-.6-3-.9 1-.9 7.4-1 7.1-1.1 1.3-.8-3.8-.7 2.2-.8 6.9-1.3 2.5-.2.1-.9 4.2-.5 5.1-.2 5-.1 1.3.6 5-1 3.3.7 2.1.1 3 .6-3.2-1zM292.3 190.5l.4-.5h2l1.5.8.7-.1.3 1.1h1.5l-.2.9 1.1.1 1.2 1.1-1.1 1.2-1.2-.7-1.2.2-.8-.2-.6.6-1 .2-.3-.8-.9.5-1.3 2-.6-.5-.1-.8.2-.8-.6-.9.7-.6.3-1.1z"/><path d="M592 212.2l-.9-1-1.2-1.8-1.2-.9-.7-1.1-2.4-1.2h-1.8l-.7-.7-1.5.8-1.6-1.4-.8 2.2-3.1-.6-.3-1.2 1-4.4.1-2 .8-1 1.9-.5 1.2-1.7 1.8 3.5.8 2.8 1.5 1.5 3.8 2.8 1.5 1.7 1.5 1.8.9 1 1.3.9-.7.7zM532.8 77.5v-1.7l-.8.4-1.5-1-.5-1.6 2.6-.8 2.6-.4 2.4.5 2.2-.1.4.5-1.2 1.6 1.2 2.6-.8.9h-1.8l-2-1.1-1-.3zM948.8 302.3l.7.9-.8 1.5-1.7.5-1.4-.4.1-1.3 1.2-1.1 1.2.4zm3-1.6l-1.8.6-.1-1.1 1.5-.6.8-.2 1.8-.9-.3 1.4zm-945.3-.9l-.2.1-.3-1.4.5-.2zM503.2 123l-.7 2.3-1.1-.6-.7-2 .5-1.1 1.5-1.2zm-10-21.8l.5.2h.7l1.1.7 3.4.6-1.1 2-.3 2.1-.6.5-1.1-.3.1.8-1.6 1.6v1.3l1.1-.4.8 1.3v.8l.7 1.1-.8.9.7 2.3 1.3.4-.2 1.3-2.1 1.7-4.8-.8-3.5.9-.3 1.8-2.8.4-2.7-1.3-.9.6-4.4-1.3-1-1.2 1.3-1.8.5-5.9-2.4-3.1-1.8-1.5-3.5-1.1-.2-2.1 3-.7 3.9.8-.7-3.3 2.2 1.2 5.4-2.3.7-2.4 2-.5.3 1h1.1l1.1 1.2 1.6 1.4 1.2-.3zM334.8 243l.7-1.3.2-1.3.5-1.3-1-1.8-.1-2.1 1.4-2.6.9.4 2 .7 2.7 2.5.4 1.3-1.6 2.7-.9 2.2-1 1.2-1.3.2-.3-.8-.6-.2-.8.9zM509.5 262l-2.7-3-1.8-2.5-1.6-3.1.1-1.1.6-.9.7-2.2.5-2.2.9-.2h3.9l-.1-3.6 1.3-.2 1.6.4 1.6-.4.3.2-.2 1.3.8 1.5 2-.2.6.6-1.1 3.5 1.2 1.8.3 2.3-.3 2-.8 1.5-2.4-.2-1.4-1.4-.2 1.3-1.8.4-.9.7 1 2zM581.2 124.8l.1-1.2-1-2.1-1.6-1.1-1.4-.3-1-.9.2-.4 2.1.5 3.7.5 3.6 1.4.5.6 1.4-.5 2.4.6 1 1.3 1.6.7-.5.4 1.5 1.6-.3.3-1.3-.1-2-.9-.5.5-3.3.5-2.6-1.5zM457.6 226.8l-.8-.1-.5 1.3-.8-.1-.5-.6.2-1.2-1.1-1.9-.7.4h-.6l-.7.2v-1.1l-.4-.8.1-.8-.5-1.3-.8-1.1h-2.1l-.6.6h-.8l-.4.7-.3.8-1.5 1.4-1.1-1.8-1-1.2-.7-.4-.7-.6-.2-1.3-.4-.7-.8-.5 1.2-1.5.8.1.7-.5h.6l.4-.4-.2-1 .3-.3.1-1.1 1.2.1 1.9.7.6-.1.2-.3 1.5.2.3-.1.2 1.1h.4l.7-.4.4.1.8.7 1.1.3.7-.7.9-.4.6-.4.6.1.5.6.3.9 1.1 1.2-.5.8-.1 1 .5-.3.4.4-.2.9.8.8-.5.3-.2 1 .6 1.2.6 2.4-1 .4-.2.4.2.6-.2 1.3zM435.5 210.3l.3-1.3 2.9-.1.6-.7h.9l1 .7h.8l.9-.5.5.9-1.1.6h-1.2l-1.1-.6-1 .7h-.5l-.6.4z"/><path d="M439.9 216.7l-1.4-1.3-1.1-.2-.6-.8v-.5l-.8-.6-.1-.6 1.4-.5.9.1.7-.4 4.9.1-.1 1.1-.3.3.2 1-.4.4h-.6l-.7.5-.8-.1zM505.3 247l-.5-.5.9-3.4 4.3.1.1 3.6h-3.9zM321.3 224.8l1.7 1.1 1.6 1.9.1 1.6.9.1 1.4 1.4 1.1 1.1-.5 2.7-1.7.8.1.7-.5 1.6 1.2 2.1h.8l.3 1.7 1.6 2.7-.6.1-1.5-.3-.9.8-1.2.6-.8.1-.3.6-1.3-.2-1.7-1.4-.1-1.4-.7-1.5.5-2.6.7-1-.5-1.4-.9-.5.3-1.3-.6-.7-1.3.1-1.8-2.3.8-.8-.1-1.4 1.7-.5.7-.5-.9-1.2.3-1.1zM524.7 111.8l.7 1.2.8.8-.8 1.1-1.1-.6h-1.7l-2.1-.5-1.1.1-.4.6-1-.7-.4 1.2 1.3 1.4.6 1 1.2 1.1 1 .6 1 1.3 2.2 1.1-.2.5-2.4-1.1-1.4-1.1-2.3-.9-2.2-2.1.5-.3-1.2-1.2-.1-1-1.6-.5-.7 1.3-.7-1V113l1.7.1.4-.5.9.5.9.1-.1-.9.8-.3.2-1.1 1.8-.8.8.3 1.8 1.3 2.1.6zM292.3 190.5v1.7l-.3 1.1-.7.6.6.9-.2.8-1.7-.5-1.2.2-1.6-.2-1.3.5-1.3-.9.4-1 2.3.4 2 .3 1-.7-1.1-1.3.2-1.2-1.6-.4.7-.9 1.6.2zM466.1 88.6l.3 2.1-1.8 2.5-4.2 1.8-3.2-.5 2.1-3-1.1-2.9 3.2-2.3 1.8-1.3.4 1.5-.6 1.6 1.4-.1zM451.1 54l-.7 1.7 2.1 1.8-2.9 2-6.1 1.8-1.9.5-2.6-.4-5.6-.8 2.2-1.2-4.1-1.3 3.6-.5.1-.8-4.1-.6 1.7-1.7 3.1-.4 2.8 1.8 3.3-1.5 2.4.8 3.4-1.4zM570.5 151.4l-.3.9-1-.4-.3 2 .7.3-.6.5-.1.7 1.2-.4.2 1.2-.9 4.8-2.1-5.1.6-1-.2-.2.6-1.4.2-2.3.3-.8h.9l.2-.5.7-.1.1 1.3-.2.4zM276.5 194.2l1.7.3 1.4.7.3.9H278l-.8.5-1.4-.5-1.4-1.1.4-.7 1.1-.2z"/><path d="M570.2 152.3l.3-.9 3 1.2 4.5-3.3 1.5 3.7-.4.5-4.9 1.5 2.8 3-.8.5-.3 1-1.9.4-.5 1.1-1 .9-2.9-.4-.2-.5.9-4.8-.2-1.2.3-.8zM652.1 122.6l-1.2.6-2.5 2.1-.5 2.1h-.9l-1.1-1.4-3.1-.1-1.2-2.4h-1.2l-.7-3-3.6-2.2-4 .2-2.7.5-3.1-2.7-2.3-1.1-4.3-2.2-.5-.2-5.7 1.7 3 11-1.2.2-2.3-2.4-1.9-.8-2.6.6-.8 1-.3-.7.3-1.3-.7-1-3.1-1-1.7-2.7-1.5-.8-.3-.9 2.4.3-.5-2.2 1.9-.5 2.2.4-.3-2.8-.9-1.9-2.3.2-2.2-.7-2.4 1.3-2.1.6-1.3-.5-.1-1.5-2-2-1.7.1-2.5-2 .8-2.2-.8-.6 1-3.2 2.8 1.7-.3-2.2 3.8-3.1 3.6-.1 5.7 2 3 1.2 2.1-1.2 3.6-.1 3.5 1.5.3-.9 3.3.2.1-1.4-4.4-2 1.6-1.4-.7-.8 1.9-.7-2.4-2 .7-1 8-1 .8-.7 5.1-1 1.4-1.2 4.3.6 2.1 3 2-.7 3.3.9.6 1.6 2-.2 4.4-2.7-.4.9 3.9 2.2 8.6 7.4.5-1.5 4 1.6 2.9-.7 1.5.5 1.9 1.7 1.9.6 1.6 1.2 2.8-.4 2.1 1.8-.9 1.9-1.8.3 1.2 3-.8 1.3-5.1-1 .5 5.3-.9.7-4.3 1.2 4.2 5.1-1.4.8.8 1.7-1.6-.4-1.7-1.1-3.6-.3-4.1-.1-.7.3-3.9-1.2-1.2.6.2 1.7-4.3-1-1.4.4z"/><path d="M652.1 122.6l.2-1.3 1.4-.4 4.3 1-.2-1.7 1.2-.6 3.9 1.2.7-.3 4.1.1 3.6.3 1.7 1.1 1.6.4-.1.7-3.3 1.6-.4 1.2-3 .3-.3 1.9-2.8-.4-1.5.6-1.9 1.4.6.7-.5.7-4.5.5-3.4-1-2.6.2-.2-1.7 2.8.5.6-.9 2 .3 2.5-2.2-3.4-1.5-1.5.7-2.2-1.1 1.5-2zM751.4 213.2l-.9-3.6 1.4-2.5 3.3-.6 2.5.5 2.4 1.1.9-2 2.5 1.1.8 2 .1 3.6-4.2 2.3 1.3 1.8-2.8.3-2.2 1.2-2.2-.5-1.2-1.5zM797.2 133.6l3.9 3.5 1.6 2 1.6 3.4-.2 1.7-2 .6-1.5 1.2-2.2.3-1-1.7-.5-2.2-2.5-3.1 1.6-.5-2.9-2.6v-.3l1.2.1.3-1.3 1.7-.2.9-.2zM530.1 123.9l-.3-1.1-.6-.3-.6-.8.4-.7.5-.2.3-1 .4-.1.4.4.5.2.3.4.4.2.6.5h.3l-.2.7-.3.4.1.2-.5.1-1.4.5v.6zM602.7 159.6l.7 1.3-.1.7 1.1 2.3-1.9.1-.8-1.5-2.3-.3 1.5-2.8z"/><path d="M757.7 207l.7-1.4-.2-2.6-2.4-2.6-.6-3-2.4-2.4-2-.2-.4 1-1.5.1-.8-.5-2.6 1.8-.4-2.7.2-3.2-1.8-.1-.5-1.8-1.2-1 .3-1.1 2-1.9.3.7h1.4l-.9-3.4 1.2-.4 2 2.3 1.6 2.8h3.2l1.4 2.6-1.5.8-.6 1.1 3.4 1.8 2.7 3.6 2.1 2.6 2.3 2.1.9 2.2-.1 3-2.5-1.1-.9 2zM570.6 149.6l-.7.1-.2.5h-.8l.6-2.4 1-2.2v-.1l1.2.2.5 1.2-1.2 1.1zM554.3 337.3l.9.9-.9 1.5-.5 1-1.5.5-.5.9-1 .3-1.7-2.3 1.5-1.9 1.4-1.2 1.3-.6zM530.8 87.3l-.2-.7.1-.8-1.1-.5-2.4-.5-.8-2.3 2.4-.9 3.7.2 2.2-.3.4.6 1.2.2 2.3 1.3.5 1.3-1.7.9-.3 1.6-2.2 1.1h-2.2l-.7-.9zM494 99.4l.4.7v1.3h-.7l-.5-.2.2-1.7z"/><path d="M526.4 82.5l-.2-2.2.8-1.7 1.9-1 2.1 2.1 1.7-.1.1-2.1 1.8-.5 1 .3 2 1.1h1.8l1.2.6.4 1.4 1.1 1.7-2.2 1.1-1.3.4-2.3-1.3-1.2-.2-.4-.6-2.2.3-3.7-.2zM542.3 105l.5-.4 1.5-.3 1.8.9 1 .1 1.2.8v1l.9.5.5 1.2 1 .8-.1.4.5.3-.6.2-1.4-.1-.3-.4-.5.3.2.5-.5.9-.2 1-.6.4-.6-1.4.1-1.2-.3-1.3-1.6-1.8-.9-1.2-.9-.9zM530.1 123.9h.3v-.6l1.4-.5.5-.1.9-.2h1.1l1.3.9.4 2-.5.1-.3.5h-1.4l-.8.6-1.6.3-1.1-.7-.5-1.3zM447.9 205.9l.9-.5.4-1.8.9-.1 1.8.9 1.5-.6 1 .2.4-.7h10.6l.6-2.2-.4-.3-1.2-13-1.1-13.1h3.9l8.8 6.6 8.8 6.5.6 1.5 1.6.8 1.2.5.1 1.9 2.9-.3v7l-1.4 2-.2 1.9-2.4.4-3.5.3-1 1.1-1.7.1h-1.7l-.7-.6-1.4.4-2.5 1.3-.5.9-2 1.4-.4.8-1.1.6-1.3-.4-.7.7-.4 2.1-2.1 2.5v1l-.7 1.3.2 1.7-1.1.5-.6.4-.4-1.3-.8.3-.5-.1-.5.9h-2l-.7-.5-.4.3-.8-.8.2-.9-.4-.4-.5.3.1-1 .5-.8-1.1-1.2-.3-.9-.5-.6-.6-.1-.6.4-.9.4-.7.7-1.1-.3-.8-.7-.4-.1-.7.4h-.4l-.2-1.1.2-1-.2-1.1-1-.9-.5-1.7zM741.3 220l-.4-2.2.6-2.3-1-1.8-.1-3.3-1.2-1.5-1.3-3.6-.9-3.9-1.5-2.5-1.5 1.6-2.7 2.1-1.5-.3-1.8-.7.5-3.7-.9-2.8-2.6-3.5.2-1.1-1.6-.4-2.2-2.4-.5-2.5 1 .5-.3-2.2 1.2-.7-.5-1.3.4-1-.4-3.1 2.2.7.7-2.5-.1-1.5 1-2.5-.5-1.7 2.9-2.1 2 .5-.6-1.8.7-.6-.4-1.1 1.4-.3 1.3 1.8 1.3.7.6 2.3.4 2.5-1.9 2.6.2 3.5 2.7-.5 1.1 2.8 1.7.6-.3 2.5 2.1 1.1 1.2.6 1.8-.9.3 1.3-2 1.9-.3 1.1-1.4.7-1.4 1.3-1.8.2-.7 3.2-1 .6 1.6 2.6 2 2.2 1.3 2-.6 2.6-.9.6.8 1.5 2 2.4.5 1.7.1 1.4 1.3 2.7-1.2 2.8zM527.8 121.4l-1 1.5.3.9-.5-.2-.8-1-1.1-.6.2-.5.2-1.6.8-.7.4-.3.7.5.4.4.8.3 1 .7-.2.2-.4.7-.6.3zM683.9 101.9l2.2-.6 3.1-2.5 2.8-1.3 2.5.9h2.4l2.3 1.4 2.4.1 3.7.7 1.1-2-1.9-1.7.7-3 3.2 1.2 2.3.3 3.1.7 1.8 2.2 3.9 1.2 1.9-.5 2.7-.4 2.5.4 3.1 1.4 2.3 1.5h2.2l3.2.4 1.7-.7 2.7-.5 2.1-2 1.6.3 1.9 1 2.6-.3.2 2.2.2 3 1.3 1.2 1.1-.4 2.6.4 1.1-1 2.5.9 3.4 2.1.3 1-2-.3-3.2.4-1.2.8-.6 2-3 1.1-1.5 1.6-2.8-.6-1.5-.3-.2 1.9 1.4 1.2.9.9-1.2 1-.9 1.6-2.3 1.1-3.5.1-3.5 1-2 1.6-1.6-.9h-2.9l-4.4-1.8-2.6-.4-3 .4-5.3-.7-2.7.1-2.2-1.8-2.3-2.7-1.7-.4-3.7-1.8-3.4-.4-3.1-.5-1.4-1.3-.6-3.5-2.7-2.3-3.9-1.1-2.7-1.6z"/><path d="M447.9 205.9l-1.7-2.1-1.6-2.2-1.7-.8-1.3-.9-1.4.1-1.3.6-1.3-.2-.9.9-.2-1.6.7-1.5.4-2.8-.2-3-.3-1.5.3-1.5-.6-1.4-1.4-1.3.6-1h10.3l-.5-4.4.7-1.5 2.5-.3v-7.7l8.5.2.1-4.6 9.6 7.3h-3.9l1.1 13.1 1.2 13 .4.3-.6 2.2h-10.6l-.4.7-1-.2-1.5.6-1.8-.9-.9.1-.4 1.8zM522 336.2l-1.8-2.3-1-2.2-.4-2.9-.6-2.2-.8-4.7.1-3.6-.3-1.6-1-1.3-1.3-2.5-1.3-3.6-.6-1.9-2-2.9-.2-2.3 1.3-.6 1.6-.5 1.7.1 1.5 1.3.4-.2 10.7-.1 1.8 1.4 6.3.5 4.9-1.3 2.2-.6 1.7.1 1 .7v.3l-1.5.6h-.8l-1.7 1.2-1-1.2-4.1 1-1.9.1-.4 10.8-2.6.1-.3 8.8-.5 11.1-2.4 1.6-1.3.2-1.6-.6-1.2-.2-.4-1.3-.9-.8zM912.9 313.6l1.7 1.8 1 1.4-1.2.8-1.2-.9-1.5-1.3-1.3-1.6-1.2-2.1-.1-1.1 1.1.1 1.2 1 .9 1zM485.7 214l.1-2.1-3.1-.7-.1-1.4-1.5-2-.3-1.4.2-1.4 1.7-.1 1-1.1 3.5-.3 2.4-.4.2-1.9 1.4-2v-7l3.7-1.3 7.5-5.9 8.8-5.8 4.1 1.3 1.5 1.7 1.9-1.1.7 4.6 1 .8.1 1 1.1 1-.6 1.3-.8 6.1-.1 4-3.3 2.8-1.1 4 1.2 1.1v1.9l1.7.1-.3 1.4-.7.2-.1 1h-.5l-1.8-3.3-.6-.1-2.1 1.7-2-.9-1.5-.2-.7.5-1.6-.1-1.5 1.2-1.4.1-3.2-1.5-1.2.7-1.4-.1-1-1.1-2.6-1.1-2.9.3-.6.7-.4 1.7-.8 1.2-.1 2.7-2.1-1.7h-.9zM535.3 47.2l.4-1.8-2.7-1-2.8.9-.5 1.9-1.6 1.1-2.2-.6-2.5.1-2.4-1.3-1.1.6-1.1.1v1.7l-3.8-.4-.3 1.4h-1.9l-1 1.9-1.6 2.9-2.7 3.7.8.9-.6 1h-2l-1.1 2.5.5 3.6 1.4 1.4-.4 3.2-1.6 1.9-.8 1.6-1.6-1.7-4 3.2-2.8.7-3.1-1.4-.9-3-.9-6.4 1.9-1.7 5.3-2.3 3.8-2.7 3.4-3.7 4.2-5.1 3-1.9 4.8-3.2 4-1.1 3.2.2 2.4-2.1 3.5.1 3.2-.5 6.5 1.8-2.3.7 2.5 1.6-3 1zm-12.9-21l-3.5.9-3.2-.5 1-.6-1.2-.7 3.4-.4.9.8zm-12-4l5.9 1.6-4 .8-.6 1.6-1.4.5-.4 1.8-2.1.1-4-1.4 1.4-.8-2.7-.6-3.6-1.8-1.5-1.7 4.4-.8 1 .8 2.4-.1.5-.7 2.4-.1zm11.4-1.5l3.5.7-2 1.2-4.8.2-5-.3-.5-.6-2.4-.1-2-.9 4.9-.5 2.5.4 1.5-.6zM706.8 165.9v1.3l.7 1.9v1.2l-2.2.1-3.2-.7-2.1-.3-1.7-1.5-3.6-.4-3.7-1.7-2.7-1.5-2.7-1.1.4-2.9 1.3-1.3.9-.7 2.3.9 3 1.9 1.5.5 1.2 1.4 2.1.6 2.3 1.3 3.1.7zM902.8 373.3l-.4 1.3 2.6-1.2-.2 1.2-1 1.3-1.9 1.4-3.4 2.2-2.2 1.1-.2 1.5h-1.9l-3 1.1-2.3 2-3.8 3-3 1.3-1.9.8h-2.1l-.7-1-2.4-.2.5-1.1 3-2.2 5.4-2.9 2-.6 2.7-1.1 3.3-1.6 2.6-1.5 2.8-2.2 1.5-.8 1.6-1.7 2.8-1.3zm13.6-14.3l-.2 3.2 1.3-2.1.7.9-1.2 2.2 1.4 1 1.5.3 2.2-1.2 1 .4-2.4 2.6-2 1.8-1.8-.1-1.3.9-.7 1.3-.8.6-2.1 1.6-2.8 2-2.8 1.2.2-.8-.7-.4 3.3-2.4.4-1.7-1.8-1.2.8-1.1 2.5-1 2-2.3 1.2-2 .2-2 .4-.5-.4-1.3-.3-2.6.2-2.2 1-.2.4 1.7 1.5.7zM619.7 199.8l-1-2.1-2.4-5 7.6-3 1.2-6-1.4-2.2v-1.2l.6-1.2-.1-1.3 1.2-.6-.5-.4v-2h1.3l1.4 2.1 1.5 1.1 2 .4 1.6.5 1.3 1.8.8 1 1 .3v.7l-.7 1.8-.4.9-1 .9-.8 2.1-1.2-.2-.5.8-.2 1.5.5 2-.3.4H630l-1.5 1.1-.1 1.5-.6.6h-1.6l-1 .7.1 1.2-1.2.9-1.5-.3-1.7 1zm5.9-27.3l-.6-1.1.6-1 .4.3-.1 1.2zM894.3 270.6l-.8.3-1.1-1.2-1-1.9-.4-2.3.4-.3.2.9.8.7 1.1 1.9 1.2 1zm-10.1-4.1l-1.4.3-.5.8-1.5.7-1.4.8-1.4-.1-2.1-.8-1.5-.9.3-.9 2.3.4 1.5-.2.5-1.4.4-.1.2 1.6 1.5-.2.8-1.1 1.6-1.1-.2-1.7 1.6-.1.5.5-.2 1.7zm-30 11l.8-9.8.5-9.9 4.5 2.1 4.8 1.7 1.8 1.6 1.4 1.5.2 1.8 4.4 1.8.5 1.6-2.5.4.4 2 2.2 2 1.5 3.2 1.5-.1-.2 1.3 2 .5-.9.6 2.7 1.2-.4.9-1.8.2-.6-.8-2.2-.3-2.6-.4-1.9-2-1.3-1.6-1.2-2.7-3.3-1.3-2.3.9-1.7 1 .1 2.2-2.2 1-1.4-.5zm33.3-13.9l-.9.8-.4-1.8-.5-1.2-1.2-1-1.4-1.2-1.9-.9.7-.8 1.5.9.8.6 1.1.8 1 1.2 1 1zM514.4 96.6l-1.1-1.9.1-1-.7-1.5-.9-1 .6-.8-.7-1.5 1.5-.8 3.3-1.3 2.7-1 2.3.5.3.7h2.1l2.8.3h4.1l1.2.3.7.9.3 1.3.8 1.1.1 1.1-1.2.6.9 1.3.2 1.3 1.5 2.5-.2.9-1.1.3-1.8 2.4.8 1.3-.5-.1-2.4-1.2-1.6.5-1.1-.3-1.3.6-1.3-1-.9.3-.2-.1-1.2-1.5-1.7-.1-.3-1-1.6-.3-.3.8-1.3-.6.1-.8-1.8-.3zM306.1 194.2l1.3.2.5.6-.8.8h-2l-1.5.1v-1.3l.4-.5zM796.7 122.3l.6.5-1-.2-.5 1-.1 1 1.3 2.2-.9.6-.2.6-.4.9-1.4.4-.6.8.6 1.3-.2.4 1.3.5 2 1.3v.7l-.9.2-1.7.2-.3 1.3-1.2-.1v.3l-1.5-.6v.6l-.6.2-.4-.5-.7-.3-.9-.5v-1.3l.4-.4-.5-.5-.1-1.6-.4-.5-1.6-.4-1.6-.8 1-1.9 1.8-1.6.5-2.1 1.7.9 2.2.1-1.3-1.5 3-1.3v-1.7zM611.8 175.3l-.4-2.1.5-1.6.7-.4.9 1 .2 1.8-.4 1.7-.7.2z"/><path d="M810.3 97.6l6.5 5.2-4.2-1 1.7 4.3 4.5 3 1.4 2-3-1.7v2.3l-2.2-2.5-1.8-2.9-2.6-3.2-1.1-2.2-3-3.9-3.7-2.8-3.2-4 .9-1.3-2.1-1.3.6-.4 2.3 1.9 3.3 2.8 2.3 2.8zM530.8 87.3h-4.1l-2.8-.3.4-1.2 2.9-1 2.4.5 1.1.5-.1.8zm-399-33.7l.4.7 2.3-1.9 4.8.4.4 2.4-3.6 1.2-3.6.2-3.7 2.6-1.6.6-1.8-.1-.2-.9-1.6-.8 1.1-1.1-1.4-.5-2.8.4.3-1 1.8-.9-3.3.6-.9 1.2-2.8 1.2 15.7-10.4 1.7 1.9 1.3 2.6zm689.3-10.8l-1.9.1-1.6-.8.6-1zm-679.5-.2l-2.7.2 2.9-1.7.4-.1h1.6l1.5.7-.7.3zm602.3-5.7l-2.7.1-4.2-.3-.5-.1.4-1 1.9-.2 4 .9zm6.1-4.4l-.6.9-3.2-.2-4.8-.9-.8-.8 3.9.4zm-11.9-1.1l1.3 1.7-6.7-.1-2.1.6-5.9-1.5-1.5-1.6 1.6-.5 4.8.1zM589.2 43.1l-1 .2-6.4-.3-1.1-1.2-3.7-.6-.9-1.3 1.6-.6-.8-1.3 2.6-2.1-1.9-.3 3.2-2-1.2-1.1 3.3-1.2 4.8-1.5 5.5-.4 2.4-.9 3.1-.3 2 .9-.6.7-5.4 1.2-4.7 1.1-4.1 2.2-1.3 2.4L583 39l1.5 2zm206.6 77.6h1.1l-1.8-3.5-2.2-2.6 1.3-1 3.3.5-.3-2.9-1.4-3.2.2-1.1-.6-2.6-3.3.8-1.2 1.2h-3.6l-2.8-2.8-4.2-2.1-4.7-.9-2.9-2.9-2.1-1.7-1.8-1.3-3.6-2.9-2.8-1.1-4-.8-3 .1-2.4.5-.8 1.4 1.8.7 1.2 1.6-.6.9v3.1l.9 1.3-2.1 1.8-3.4-1.1-2.6.3-1.9-1-1.6-.3-2.1 2-2.7.5-1.7.7-3.2-.4H732l-2.3-1.5-3.1-1.4-2.5-.4-2.7.4-1.9.5-3.9-1.2-1.8-2.2-3.1-.7-2.3-.3-3.2-1.2-.7 3 1.9 1.7-1.1 2-3.7-.7-2.4-.1-2.3-1.4h-2.4l-2.5-.9-2.8 1.3-3.1 2.5-2.2.6-.8.2-2.1-1.8-2.8.4-1.6-1.2-1.9-.6-1.9-1.7-1.5-.5-2.9.7-4-1.6-.5 1.5-8.6-7.4-3.9-2.2.4-.9-4.4 2.7-2 .2-.6-1.6-3.3-.9-2 .7-2.1-3-4.3-.6-1.4 1.2-5.1 1-.8.7-8 1-.7 1 2.4 2-1.9.7.7.8-1.6 1.4 4.4 2-.1 1.4-3.3-.2-.3.9-3.5-1.5-3.6.1-2.1 1.2-3-1.2-5.7-2-3.6.1-3.8 3.1.3 2.2-2.8-1.7-1 3.2.8.6-.8 2.2 2.5 2 1.7-.1 2 2 .1 1.5 1.3.5-.6 1.7-2.2.5-1.7 3.1 2.8 2.8.2 2 3.5 3.5-1.2 1.2-.3.8-1.1-.2-2.1-1.8-.7-.1-1.6-.7-1-1.3-2.4-.6-1.4.5-.5-.6-3.6-1.4-3.7-.5-2.1-.5-.2.4-3.6-2.5-2.9-1.2-2.4-1.7 1.7-.5 1.5-2.5-1.6-1.1 3.3-1.2-.2-.7-2 .5-.2-1.3 1-.8 2.3-.2.1-1-.8-1.6.6-1.6-.2-.8-3.6-1h-1.4l-1.7-1.3-1.7.4-3.1-1-.1-.6-1-1.2-1.9-.2-.4-.9.5-.5-1.8-1.7-2.3.3-.7-.1-.5.6-.8-.1-.9-1.8-.8-1 .4-.3 1.9.1.7-.6-.8-.8-1.6-.5v-.5l-1-.5-1.8-1.9.3-.8-.4-1.3-2.3-.7-1.1.4-.5-.7-2.4-.7-1.1-1.7-.4-1.4-1.2-.6.8-.9-1.2-2.6 1.2-1.6-.4-.5 2.1-1.5-2.5-1.3 3.8-3.5 1.6-1.6.4-1.4-3.5-1.8.4-1.8-2.3-2 .8-2.2-3-3 1.3-2-3.4-1.7-.2-1.8 1.5-.2 3-1 1.8-.9 3.6 1.5 5.5.6 8.3 2.9 1.9 1.3.7 1.7-1.7 1.4-3 .7-9.5-2-1.4.3 3.8 1.9.5 1.2.9 2.8 2.8.8 1.8.7-.1-1.3-1.6-1.2 1-1 5.4 1.7 1.5-.7-2-1.9 3.9-2.6 1.8.2 2.2.9.5-1.8-2.2-1.6.4-1.5-2-1.6 5.7.8 1.7 1.5-2.3.3.5 1.4 1.9.9 2.9-.6-.2-1.6 3.6-1.2 5.8-2.2 1.5.1-1.2 1.5 2.6.3 1-.9h3.6l2.3-1.1 3 1.5 1.4-1.7-2.8-1.4.5-.9 6.1.8 3.1.8 8.8 2.9.5-1.3-2.8-1.4-.4-.5-2.5-.3V45l-2.3-1.9-.5-.8 2-2.2-.3-2.3 1-.4 5.4.6 1.3 1.4-.3 1.9 1.7.8 1.8 1.8 1.8 3.4 3.1 1.6.3 1.7-1.7 3.7 2.5.4.3-.9 1.8-.7-.3-1.3.9-1.2-2.1-1.5-.2-1.7-2.2-.2-1.4-1.4-.2-2.5-3.8-2 2.1-1.7-1.7-1.7.9-.1 2 1.4 1 2.3 2.3.5-2.1-1.8 2.4-1 3.7-.1 4.6 1.4-3.3-2-2.3-2.6 2.8-.5 4.4.1 3.7-.3-2.6-1.2.7-1.6 1.9-.1 2.4-1.1 4.3-.3-.1-.6 4.4-.3 2.1.6 2.5-1.3 3.3.1-.7-1 .5-1 2.9-.9 3.9.8-1.7.5 4.4.4 1.9 1.1.9-.6h5.2l5.4 1.2 2.5.8 1.2 1.2-1.1.7-3.2 1.3-.6.7 2.7.4 3.4.6 1.1-.5 2.7 1.5.1-.6 2.5-.4 6.3.4 1.8 1.2 8.2.3-2.3-1.8 4.5.4h2.9l4.6 1.3 2.8 1.5.2 1 4.8 2 4.2 1-1.4-2.6 4.4 1.1 2.3-.7 4.7.8.4-.7 3.6.4-4.5-2.3 1-1.1 19 1.6 3.8 1.5 7.6 1.9 7-.5 4.4.4 3.1 1 2.4 1.9 3.4.7 1.9-.5 3.3-.1 4.3.5 3.3-.3 6.7 2.3 1.2-.8-4-1.7-.9-1.1 7.2.7 3.8-.1 7.4 1.2 4.4 1.1 15.7 10.4h0l-1 1.1-2.9-.2 3.9 1.5 4.3 2.2 1.9.7 1.8 1.1.5.7-4.7-.6-3.1 2.1-1.4.3-.8 1.9-.9 1.7.8 1.3-5.4-1.9-2.9 2.1-2.2-1-.6 1.2-3.4-.4 1.5 1.8.6 2.7 1.3 1.2 3.2.6 4.3 4.1-2 .1 1.6 2.4 2.2 1.2-2.3 1.5 2.5 3.2-2.7.7 2.2 3-.8 2.7-2.7-2-5-4.2-7.6-6.4-3-3.9.1-1.7-1.3-1.3 2.6-.6-.1-3.6.3-2.8 1.2-2.2-3.1-3.8-2.2.2 1.5 2.2-1.7 3-5.7-3.3-4.3.9-.1 4.6 3.7 1.7-4 .7-3 .3-2-2-3.8-.4-1.2 1.4-7-.5-6.2.8-1.7 5.5-2.3 6.6 3.8.4 2.7 1.8 2.7.6.2-1.4 2.6.2 6 3.2 2.2 2.4.7 2.9 2.6 3.5 2.4 4.6-.5 4.3.7 2-.9 3.5-1 3.4-.4 1.8-2.2 1.7-1.5.1-2.4-1.5-1.9 2.2.2 1-.6-.5zM659 25.2l-8.5.8-.6-2.8 1-.3 1.5.2 5.9 1.2zm-95.1-4.7l-2 .2-1.4.2v.3l-1.8.3-2-.5.5-.6h-3.7l3-.4h2.5l.6.5.7-.5 1.3-.3 2.7.5zm84.8 3.4l-3.4.3-5.5-.6-3.8-.8-3.2-1.6-2.7-.3 2.5-1.4 3-.4 4.4 1 6.5 1.9zM561 253.4l1.1 1.7-.2 1.8-.8.4-1.4-.2-.8 1.7-1.6-.2.2-1.7.4-.2.1-1.8.8-.9.6.4zM446.3 166.8h11.4l-.1.6-.1 4.6-8.5-.2v7.7l-2.5.3-.7 1.5.5 4.4H436l-.6 1 .2-1.3.1-1.4 1.1-.8.9-1.6-.2-1 1-2.2 1.5-1.9.8-.4.8-1.8.1-1.6 1-1.9 1.7-1.1 1-1.7.4-.8zM570.1 221.5l.1 2.3-.4.9-1.4.1-.9 1.7 1.7.2 1.3 1.5.5 1.2 1.3.7 1.6 3.3-1.8 2-1.6 1.8-1.6 1.4H567l-2.1.7-1.7-.7-1.1.8-2.4-2-.6-1.3-1.5.7-1.2-.2-.7.5-1.2-.4-1.7-2.5-.4-.9-2-1.2-.7-1.8-1.1-1.3-1.9-1.6v-1l-1.5-1.2-1.8-1.2.8-.3.9-.6.7-2.7.7-1.4 1.9-.4.4.8 1.4 1.8.8.3.9-.6 1.9.1.4.7h2.6l.1-.7 1.4-.5.2-.9 1-.6 2.3 1.7 1.3-.3 1.3-2.2 1.4-1.6-.2-1.8-.7-.9 1.6-.2.1-.6 1.3.2-.3 2.2.4 2.2 1.4 1.2.3 1v1.5zM435.8 209l-1-2.3-1.3-1.1 1.2-.6 1.3-2.1.7-1.6.9-.9 1.3.2 1.3-.6 1.4-.1 1.3.9 1.7.8 1.6 2.2 1.7 2.1.1 1.9.5 1.7 1 .9.2 1.1-.2 1-.3.1-1.5-.2-.2.3-.6.1-1.9-.7-1.2-.1-4.9-.1-.7.4-.9-.1-1.4.5-.4-2.4 2.4.1.6-.4h.5l1-.7 1.1.6h1.2l1.1-.6-.5-.9-.9.5h-.8l-1-.7h-.9l-.6.7zM909.7 281.6l.6 1h-1.8l-.8-1.8 1.5.7zm-3.1-1.8h-1.1l-1.6-.3-.5-.4.3-1.2 1.7.4.8.7zm2.3-.8l-.5.5-1.7-2.6-.4-1.8h.9l.8 2.4zm-4.4-3.9v.6l-1.9-1.2-1.4-1.1-.9-1 .4-.3 1.2.7 2 1.4zm-6-2.9l-.5.1-1.1-.7-1-1.2.2-.5 1.5 1.3zM606.9 225.9h-2.2l-8.8-3.6-1-1.1-1.1-1.4-1-1.7.5-1.1 1-1.6.8.6.6 1.2 1.2 1.3h1.4l2.4-.8 2.9-.3 2.3-1 1.3-.2.9-.5 1.5-.1h0l.9-.1 1.2-.4 1.4-.3 1.2-1.1h1l.1.9-.2 1.7.1 1.6-.5 1.1-.7 3.3-1.1 3.3-1.6 3.9-2.2 4.4-2.2 3.4-3 4.1-2.7 2.4-3.9 3-2.5 2.3-2.9 3.7-.6 1.6-.6.7-1.6-2.5-.1-11 2.3-3.4.7-1h1.7l2.3-2.2 3.5-.1zM534.3 116.8l-.5.7.4 1 1.3 1.3-.9 1-.3.9.3.4-.3.4h-1.1l-.9.2-.1-.2.3-.4.2-.7h-.3l-.6-.5-.4-.2-.3-.4-.5-.2-.4-.4-.4.1-.3 1-.5.2.2-.2-1-.7-.8-.3-.4-.4-.7-.5.5-.1.3-1.4-1.3-1.2.5-1.3h-.9l.8-1.1-.8-.8-.7-1.2 1.8-.8 1.4.2 1.4 1.1.4 1 1.5.7.3 1.2 1.5.9.7-.7.6.4-.5.5zM328.1 232l3.1.6.3-.6 2.2-.2 2.8.8-1.4 2.6.1 2.1 1 1.8-.5 1.3-.2 1.4-.7 1.2-1.5-.6-1.3.3-1.1-.3-.2.9.4.6-.2.6-1.5-.2-1.6-2.7-.3-1.7h-.8l-1.2-2.1.5-1.6-.1-.7 1.7-.8zM523.7 101.3l.2.1.9-.3 1.3 1 1.3-.6 1.1.3 1.6-.5 2.4 1.2-.6.7-.3 1.2-.5.3-2.6-.9-.7.2-.5.7-1 .4-.3-.2-1.1.4-.9.1-.2.6-1.9.4-.9-.4-1.2-.7-.4-1 .2-.4.3-.6h1l.8-.3v-.3l.4-.1.1-.7.5-.1.3-.5zM512.7 110l1.9.3 1.2-.7 2-.1.4-.5.4.1.6 1-1.8.8-.2 1.1-.8.3.1.9-.9-.1-.9-.5-.4.5-1.7-.1.6-.2-.7-1.3zM503.7 74.5l.8-1.6 1.6-1.9.4-3.2-1.4-1.4-.5-3.6 1.1-2.5h2l.6-1-.8-.9 2.7-3.7 1.6-2.9 1-1.9h1.9l.3-1.4 3.8.4v-1.7l1.1-.1 2.9 1.3 3.3 1.7.9 4 .9 1-3.4.8-1.6 1.8.6 1.7-2.9 2.1-3.6 2.3-1 3.9 1.7 1.9 2.2 1.5-1.5 3.1-2.2.7-.2 4.7-1 2.6-2.7-.2-1 2.2-2.6.1-.9-2.6-2.1-3.2zM562.8 330.6l-.6 1.4-1.6.3-1.4-1.6v-1.1l.8-1.1.3-.9.8-.2 1.3.5.3 1.4zM654.1 128.7l-.6.9-2.8-.5.2 1.7 2.6-.2 3.4 1 4.5-.5 1.4 2.8.7-.3 1.7.7.3 1.2.8 1.7h-2.5l-1.8-.3-1.2 1.4-1 .3-.7.6-1.2-1-.5-2.5-.8-.1v-1l-1.5-.6-.8 1 .1 1.2-.3.5-1.5-.1-.4 1.4-1-.6-1.6 1-.8-.4.6-3-1.1-2.3-2-.7.3-1.3 2 .1.8-1.6.2-2 3-.7-.1 1.4.6.9z"/><path d="M633.3 142.5l-.8-2.5-1.8-.1-3.5-2.7-2-.3-3.1-1.6-1.8-.2-1 .5-1.7-.1-1.4 1.8-2.1.5-.8-2.1-.3-3.1-2.2-1.1.2-2-1.7-.2v-2.5l2.5.7 1.9-.9-2.2-1.8-1.1-1.7-1.8.7.3 2.2-1.2-1.9.8-1 2.6-.6 1.9.8 2.3 2.4 1.2-.2h2.7l-.8-1.5 1.9-1.1 1.5-1.7 3.7 1.6.9 2.4 1.1.6 2.6-.2 1 .6 2 3.1 3.3 2 2 1.4 3 1.5 3.6 1.3.4 1.8-.8-.1-1.4-.8-.1 1.1-2 .6.1 2.4-1.2.9-1.9.5-.2 1.3-1.8.4zM811.7 276.8l.3-.7 2.4-.7 1.8-.1.9-.3 1 .3-1.1.8-2.9 1.4-2.2.8v-.9zM316.6 217.6l1.5-.4.6.1-.3 2.2-2.2.3-.5-.2.9-.9zM796 176.4l-.5 4.9-.7 2.4-1.9-2.5-.7-2.2.9-3 1.6-2.3 1.4.9zM552.4 93.7l.8.1.5-.6.7.1 2.3-.3 1.8 1.7-.5.5.4.9 1.9.2 1 1.2.1.6 3.1 1 1.7-.4 1.7 1.3h1.4l3.6 1 .2.8-.6 1.6.8 1.6-.1 1-2.3.2-1 .8.2 1.3-1.9.2-1.3 1-2.2.1-1.9 1.1.5 1.9 1.3.7 2.4-.2-.3 1.1-2.5.5-3 1.7-1.4-.6.3-1.4-2.8-.9.4-.5 2.1-1-.8-.7-3.8-.7-.4-1.1-2.1.3-.6 1.7-1.6 2.1-1.1-.5-1.1.5-1.1-.5.6-.4.2-1 .5-.9-.2-.5.5-.3.3.4 1.4.1.6-.2-.5-.3.1-.4-1-.8-.5-1.2-.9-.5v-1l-1.2-.8-1-.1-1.8-.9-1.5.3-.5.4h-1l-.5.7-1.7.3-.7.4-1.2-.7h-1.5l-1.5-.3-.9.6-.3-.8-1.4-.8.3-1.2.6-.7.5.1-.8-1.3 1.8-2.4 1.1-.3.2-.9-1.5-2.5 1.1-.1 1.1-.8h1.7l2.4.2 2.6.7h1.9l.9.4.8-.5.7.7 2-.1 1 .3-.1-1.5.5-.6z"/><path d="M645.4 137.3l-.4-1.8-3.6-1.3-3-1.5-2-1.4-3.3-2-2-3.1-1-.6-2.6.2-1.1-.6-.9-2.4-3.7-1.6-1.5 1.7-1.9 1.1.8 1.5h-2.7l-3-11 5.7-1.7.5.2 4.3 2.2 2.3 1.1 3.1 2.7 2.7-.5 4-.2 3.6 2.2.7 3h1.2l1.2 2.4 3.1.1 1.1 1.4h.9l.5-2.1 2.5-2.1 1.2-.6.9.3-1.5 2 2.2 1.1 1.5-.7 3.4 1.5-2.5 2.2-2-.3-1 .1-.6-.9.1-1.4-3 .7-.2 2-.8 1.6-2-.1-.3 1.3 2 .7 1.1 2.3-.6 3-2-.6zM761.9 185l-3 2.6-1.7 2.8-.3 2.1 2.5 3.2 3.1 3.9 2.6 1.9 1.9 2.4 1.9 5.6.2 5.3-2 2-2.9 1.9-1.9 2.6-3.2 2.8-1.1-2 .6-2-2.1-1.7 2.2-1.2 2.8-.3-1.3-1.8 4.2-2.3-.1-3.6-.8-2 .1-3-.9-2.2-2.3-2.1-2.1-2.6-2.7-3.6-3.4-1.8.6-1.1 1.5-.8-1.4-2.6h-3.2l-1.6-2.8-2-2.3 1.3-.8h2.1l2.5-.3 1.9-1.6 1.5 1.1 2.4.6-.1 1.7 1.5 1.2zM921.7 299.7l-.9.4-.6-1.4.3-.8zm-1-4.7v2.5l-.6-.4-.6.2-.2-.9.4-2.3zM570.2 152.3l.2 1.9-.3.8-1.2.4.1-.7.6-.5-.7-.3.3-2zM619.7 199.8l-1.8.8-.4 1.3v1.1l-2.6 1.2-4.1 1.4-2.3 2.2-1.1.1-.8-.1-1.5 1.2-1.7.6-2.2.1-.6.2-.6.8-.6.2-.4.8-1.3-.1-.9.4-1.8-.1-.8-1.8v-1.6l-.4-.9-.7-2.2-.8-1.3.5-.1-.3-1.4.3-.6-.2-1.3 1.1-1-.3-1.2.6-1.5 1.1.8.7-.3 3-.1.5.3 2.6.3 1-.1.7 1 1.2-.5 1.7-3.2 2.3-1.3 7.5-1.2 2.4 5zM415.8 205.2l-.1.1h-.2l-.2-.3.1-.1.3-.2.1.1.1.2zm3-.8h-.1l-.1-.2v-.2l.1-.2h.2l.1.2v.3zm-.7.4l-.2.3-.3-.1-.4-.5v-.2l.1-.2v-.3h.2v.2l.4.4zm1.5-3.8l.3.1h.1l.2.1v.3l-.1.2-.3.1h-.2l-.1-.1.2-.4zm-3-1.1l.1.1-.1.1-.4-.1h-.1l-.2.3-.2-.4v-.1l.1-.1.3.1zm3.1-.1l-.1.1-.1-.2-.1-.3.2-.1h.1zm-5.2-.5l-.4.1-.2-.1.1-.2.3-.1.2.2zm-.7-.4l-.3.1-.1-.1v-.2l-.1-.1v-.1l.6-.3h.3l.1.3-.1.1zM595.8 287.2l-.3.1-.1-.2v-.1h.2zm1.8-.7l.2.4v.3l-.1.1-.1-.1-.2-.2-.5-.3h.5v-.1l.1-.1zm-2.6-.6v.1l-.4-.3-.2-.2.1-1 .1-.1.1-.1.1.1v.7l.2.4.1.3zM630.6 311.8l-.2.1h-.4l-.2-.2.1-.1v-.2l.1-.4.2-.1.2-.1v-.3l.2-.1.2-.1.2.3.1.4v.4l-.2.1-.1.2zM627.8 264.2v.2h-.2v-.2l-.2-.1-.1-.2.2-.1zM610.9 172l-.1.2-.1-.1-.2-.4v-.2l-.2-.5.1-.1h.3l-.1.1.2.2zM675.4 240.3h-.1v-.2h.2v.2zm.2-2.8h-.1v-.2h.1zM931.1 232.4l-.1-.1v-.2h.1zm3.5-3.9l.4.2.3-.1h0l-.2.1h-.1l-.4-.1zM913.5 234v.1l-.2-.1.1-.1zm-12.8-4.5l-.1.1-.2-.1-.1-.2-.1-.1v-.1l.2-.1h.2l.2.3-.1.1zm-17.9-1.6l-.1-.1v-.1h.1zm.7-.3h-.1v-.1h.1zm-37.1-6.3v-.2h.1l.1.1-.1.1zM924.6 251.6l.1-.1.1.1v.1h-.2v-.1zM837.5 227.8h-.1l-.1-.2v-.3l.1-.2h.1l.1.3-.1.2zM27.3 292.4h-.8l-.4-.2H26l-.3-.2-.2-.2.2-.1h.4l.7.2.1.2h.1l.2.1zm-2.7-1.8l.4.3.2.4-.2.4-.2-.1-.4.1-.1-.1-.7-.6-.2-.2h.3l.5-.1zM757.4 246.2l-1.1.4-.4-.2.2-.7.2-.1h.3l.4.1h.2v.2zM23.4 314.3l.1.4-.2-.2-.1-.1zm-.8-.4l.1-.1.1.1-.1.2-.1-.1-.5-.2.1-.1h.2zm1.1-7.7l-.1.2-.2-.2.1-.2.2.1.1.1zM953.5 274.2l.2-.3.2.1-.2.4zm1.1-1.7l.1.1h-.1zm1 2.9h.1v.3l-.3.2v.1l-.1.1v-.4l.2-.3zm1.6 2.8v.1h0l-.1.2V278.2zm-9 9.4h.4v.2l-.4-.1zm2.5-15.7l-.1-.2h.1zm-2.5-4.9l.1.1.1.1-.1-.1-.2-.1zM317.7 198.6l-.1.2-.3-.1-.1-.1v-.1l.2-.2.4.2v.1zm0-1.6v.1l-.3-.1.1-.4.2.1zM322.7 210.6h-.1l-.3-.1v-.6h.2l.3.5zM318.4 204l-.3.1v-.5l-.2-.4.1-.2v-.1l.4.1.1.2v.5zM316.6 213.8l-.1-.1.1-.2.2-.4.2.1-.2.5zM315.5 198.4l-.1.1-.1-.1.1-.2h0l.1.1zm-.2-.3l-.2-.2-.2-.1-.1-.1v-.1l.1-.1.2.2.1.2h.1zM319.1 208.4l-.2.3-.2-.2v-.4l.2-.3.1-.2.1-.1.1.3zM318.3 210.4h-.1l-.2-.2v-.3l.2-.1.1-.1h.1v.5zM483.4 121.7l.2-.1h.2l.3.1V122l-.6.2-.1-.1v-.2zM502.6 108l-.1.1.2.1v.1l-.1.1-.1.1-.2-.1.1-.1-.1-.2.1-.3zM516.4 141.9v.1h-.3l-.2-.1v-.4l.5.3zM497.9 118.3h-.2v-.1zM509.7 117.7l.2-.2.2.1-.1.2h-.2zM60.7 243.9l.1.1.2.1v-.1.1h0v.1h-.1 0v.2l.1.1h.1l.1.1h0v.1h.2v.1h0-.1 0-.1 0-.1 0v-.1h0-.1l-.3-.1h-.1v-.1l-.1-.1h-.1 0-.1v-.2h.2-.1v.1h0v.1h.2l.1.1h0v-.1h0-.1 0v-.1h.1v.1h.1v-.1h-.1v-.1h.1v-.1.1h0v.1h0l.1-.1h0v-.1h0-.1 0l-.1-.1h0-.1v-.1h0v.1h-.1v-.1h.1zM497.7 248.7l.3.4-.2.5-.4.3-.2-.5.1-.3z"/></g><path d="M633.3 142.5l2.8 1.1 1.8-.4.2-1.3 1.9-.5 1.2-.9-.1-2.4 2-.6.1-1.1 1.4.8.8.1 1.4.1 2 .6.8.4 1.6-1 1 .6.4-1.4 1.5.1.3-.5-.1-1.2.8-1 1.5.6v1l.8.1.5 2.5 1.2 1 .7-.6 1-.3 1.2-1.4 1.8.3h2.5l.7.8-1.3.4-1.1.5-2.8.4-2.5.6-1.1 1.3.9 1.3.6 1.5-.9 1.3.4 1.1-.5 1.1-2.4-.1 1.5 2-1.5.8-.7 1.8.5 1.8-.8.8-1-.2-1.8.4-.1.8h-1.9l-1.1 1.7.3 2.6-3.1 1.2-1.8-.2-.4.6-1.6-.4-2.5.5-4.5-1.6 1.8-2.7-.5-1.9-2-.5-.6-2-1.3-2.4.8-1.6-1.2-.5.3-2.2zM543.4 283l.2.9-.3 1.5.4 1.4-.4 1.1.2 1H538l-.4 9.6 1.7 2.5 1.7 1.8-4.9 1.3-6.3-.5-1.8-1.4-10.7.1-.4.2-1.5-1.3-1.7-.1-1.6.5-1.3.6-.2-1.9.4-2.7 1-2.7.1-1.3.9-2.7.7-1.3 1.5-2 .9-1.3.3-2.2-.1-1.7-.8-1.1-.7-1.8-.6-1.9.1-.6.8-1.2-.7-2.9-.6-2-1.3-1.9.3-.6 1.1-.4h.7l1-.3h7.8l.7 2.3.7 1.8.6 1 1 1.5 1.8-.2.8-.4 1.5.4.4-.8.7-1.7 1.6-.1.2-.6h1.3l-.2 1.1h3.2l.1 1.9.5 1.1-.4 1.9.1 1.8.9 1.1-.2 3.6.7-.2h1.1l1.7-.4zm-31-15.5l-.7-2.3 1.1-1.3.8-.5 1 1-1 .7-.4.7-.1 1.3zM330.9 414.3h-3.7l-2.8-6.5 1.4 1.4 2.1 2.1 3.6 1.8 3.4.7-.4 1.4-2 .1zm-14.3-97.2l5.3 4.9 2.2.5 3.4 2.2 2.8 1.2.5 1.3-1.9 4.6 2.7.8 2.9.5 2-.5 2-2.3.2-2.7 1.2-.6 1.5 1.8.2 2.4-2 1.7-1.5 1.2-2.6 2.9-2.8 4.1-.2 2.4-.2 3.1.6 3-.4.7.1 2 .2 1.5 3.7 2.6v2.1l1.9 1.3.1 1.5-1.5 3.8-3.3 1.6-4.8.7-2.8-.3.9 1.8.1 2.2.9 1.5-1.2 1.1-2.4.4-2.7-1.1-.7.8 1.2 2.9 1.9.9 1.1-.9 1.1 1.5-1.9 1-1.4 1.8.6 3-.1 1.6h-2.2l-1.4 1.5v2.2l3.1 2.2 2.4.6.1 2.6-2.2 1.7-.2 3.4-1.7 1.2-.4 1.3 1.9 3 2.2 1.7-1-.1-2.3-.5-5.6-.4-1.7-1.7-.9-2.1-1.4.2-1.3-1.1-1.4-3.1 1.3-1.3v-1.8l-.8-1.5.3-2.5-.5-4-.9-1.7.8-.6-.6-1.1-1.3-.6.3-1.2-1.4-1.1-1.7-3.5.8-.6-1.6-3.6-.3-3.1-.2-2.7 1.2-1.1-1.5-2.9-.8-2.8 1.4-1.9-.6-2.5.7-3-.6-2.8-.8-.5-2.3-5.2 1-3.1-.8-2.9.4-2.8 1.3-2.8 1.5-1.9-1-1.2.4-.9-.7-5.1 2.6-1.4.6-3.2-.4-.7 1.9-2.8 3.5.8 1.7 2.2.8-2.5 3 .2z" stroke-width=".34" stroke="#333" cursor="pointer" fill="#fc4e2a"/><path d="M519.8 105.3l-.1 1.2h-1.3l.5.6-.7 1.9-.4.5-2 .1-1.2.7-1.9-.3-3.5-.7-.6-1-2.3.5-.2.5-1.5-.4-1.3-.1v-.3l-.7-.1.1-.1v-.1l-.2-.1.1-.1-.2-.2.3-.3-.2-.4.8-.2 1.2.8.3-.8 2.1.2 1.6-.6 1.1.1.8.6.2-.5-.5-1.9.8-.4.8-1.3 1.8.9 1.2-1.2.8-.2 1.9.9 1.1-.1 1.1.5-.2.4zM489.3 96.1l2.1-.6 1.5 1.3 1.3.7-.2 1.9-.6.1-.2 1.7-2.1-1.4-1.2.3-1.6-1.4-1.1-1.2h-1.1l-.3-1 1.8-.6z" stroke-width=".34" stroke="#333" cursor="pointer" fill="#6bb537"/><path d="M721.6 183.5l.3 2.2-1-.5.5 2.5-1-1.6-.3-1.5-.8-1.5-1.3-1.8-2.4-.1.4 1.3-.6 1.6-1.2-.6-.3.6-.8-.3-1-.3-.8-2.5-1.2-2.3.2-1.8-1.8-.8.4-1.1 1.5-1.1-2.2-1.6.6-2.1 2.3 1.3 1.2.2.6 2.1 2.6.4h2.4l1.5.5-.7 2.5-1.2.2-.5 1.7 1.6 1.6.2-1.9.7-.1z" stroke-width=".34" stroke="#333" cursor="pointer" fill="#e31a1c"/><path d="M534.3 116.8l.9 1.2.9-.2 1.9.5 3.5.1 1.1-.7 2.8-.7 1.9 1 1.4.4-1.1 1.2-.6 2.1 1 1.7-2.1-.4-2.4 1 .2 1.4-2.2.3-1.9-1-1.8.8-1.8-.1-.4-2-1.3-.9.3-.4-.3-.4.3-.9.9-1-1.3-1.3-.4-1z" stroke-width=".34" stroke="#333" cursor="pointer" fill="#6bb537"/><path d="M305.3 318.6l-1.8.4-1.5-4.2-1.8-3.4.5-2.9-1.5-1.3-.5-2.1-1.5-2.1 1.3-3.2-1.3-2.6.5-1-.6-1.1.9-1.5-.1-2.6v-2.1l.5-1-2.6-4.9 2 .3 1.3-.1.6-.9 2.2-1.2 1.4-1.1 3.4-.6-.2 2.3.4 1.2-.1 2 3.1 2.7 3 .5 1.1 1.1 1.8.6 1.1.9h1.7l1.6.8.2 1.8.6.9.1 1.3h-.7l1.2 3.5 5.1.2-.3 1.7.4 1.2 1.5.8.8 1.9-.3 2.4-.6 1.3.4 1.7-.7.6-.2-.9-2.6-1.5-2.4-.1-4.5.9-1 2.7.1 1.6-.7 3.6-.4-.6-3-.2-.8 2.5-1.7-2.2-3.5-.8z" stroke-width=".34" stroke="#333" cursor="pointer" fill="#fc4e2a"/><path d="M332.7 341.1l2.8-4.1 2.6-2.9 1.5-1.2 2-1.7-.2-2.4-1.5-1.8-1.2.6.3-1.7.2-1.8-.2-1.7-1-.5-.9.5-1-.2-.4-1.1-.5-2.8-.6-.9-1.8-.8-1 .6-2.8-.6-.2-4.1-.9-1.7.7-.6-.4-1.7.6-1.3.3-2.4-.8-1.9-1.5-.8-.4-1.2.3-1.7-5.1-.2-1.2-3.5h.7l-.1-1.3-.6-.9-.2-1.8-1.6-.8h-1.7l-1.1-.9-1.8-.6-1.1-1.1-3-.5-3.1-2.7.1-2-.4-1.2.2-2.3-3.4.6-1.4 1.1-2.2 1.2-.6.9-1.3.1-2-.3-1.5.5-1.2-.3-.1-4.6-2.1 1.8-2.3-.1-1.1-1.6-1.8-.2.5-1.3-1.5-1.8-1.2-2.7.6-.6v-1.2l1.6-.9-.4-1.6.7-1.1.1-1.4 3-2 2.2-.6.3-.5 2.4.2 1-8.3.1-1.3-.4-1.7-1.2-1.1v-2.2l1.5-.5.5.3.1-1.2-1.5-.3-.1-1.9 5.2.1.9-1 .8.9.5 1.8.5-.4 1.4 1.6 2.1-.2.5-.9 2-.7 1.1-.5.3-1.3 1.9-.8-.1-.7-2.2-.2-.4-1.9.2-2.1-1.2-.7.5-.3 2 .4 2.1.7.7-.7 2-.5 3-1.1 1-1.1-.3-.9 1.3-.1.6.7-.3 1.3.9.5.5 1.4-.7 1-.5 2.6.7 1.5.1 1.4 1.7 1.4 1.3.2.3-.6.8-.1 1.2-.6.9-.8 1.5.3.6-.1 1.5.2.2-.6-.4-.6.2-.9 1.1.3 1.3-.3 1.5.6 1.2.7.8-.9.6.2.3.8 1.3-.2 1-1.2.9-2.2 1.6-2.7.9-.2.7 1.7 1.4 5.3 1.4.5.1 2-2.1 2.5.9.9 4.7.5.1 3 2-1.9 3.4 1 4.4 1.9 1.3 1.7-.4 1.7 3.1-.9 5.2 1.6 4-.1 3.9 2.5 3.5 3.3 2 .9 2.3.1 1 1 1 3.8.4 1.8-.9 5-1.3 2-3.6 4.2-1.6 3.4-1.9 2.6-.6.1-.7 2.2.5 5.6-.5 4.7-.2 2-.8 1.2-.2 4-2.4 3.9-.3 3.2-2 1.3-.5 1.8h-2.8l-4 1.1-1.7 1.4-2.9.8-2.8 2.4-1.9 3-.2 2.3.6 1.7-.1 3-.4 1.5-1.6 1.6-2.1 5.3-1.9 2.4-1.5 1.4-.7 2.9-1.4 1.7-1-1.7.9-1.4-1.8-2.1-2.3-1.6-2.9-2-.9.1-3-2.3z" stroke-width=".34" stroke="#333" cursor="pointer" fill="#fc4e2a"/><path d="M329.4 109.9l1.6.4 2.3-.1-1.6 1.3-.9.1-2.6-1.2-.3-1 1.2-.9zm6.8-7.5l-1.1.1-2.7-.9-1.7-1.4.9-.3 2.8.8 1.9 1.2zm-144.6 1.8l-1.5.4-2.9-1.4v-1l-1.4-1 .1-.9-2-.5.3-1.6.7-.6 1.9.6 1.1.4 2 .3v1l.3 1.4 1.5 1.2zm159.3-6.4l-2.4 2.5 1.8-.9 1.4.6-1.1 1 1.8.8 1.3-.7 2 .9-1.3 2.1 1.8-.5-.2 1.6.3 1.8-1.7 2.6-1.1.1-1.4-.5 1.2-2.4-.6-.4-3.4 2.5-1.4-.1 2-1.3-2-.8-2.6.2-4.5-.1-.1-.8 1.8-1.1-.8-.8 2.5-1.7 3.9-4.7 1.9-1.6 2.3-1 1.1.1-.7.8zm-168.5-9.7h0l2.4-.2-3.4 3.3.1 2.3h-.9l-.3-1.4.3-1.3-.4-.9.6-1.2.9-1zm132.5-22.7l-1.7 1.5-.8-.3-.1-.8.2-.2 1.3-.8.9.1zm-4.6-1.5l-3.4 1.5h-1.4v-.8l2.4-1.2h2.8zm-1.4-7.8l-.5 1.1 1.3-.4.7.7 1.6.9 1.8.8-.6 1.3 1.6-.2.9.9-2.3.8-2.8-.6-.4-1.2-2.9 1.4-3.9 1.4.3-1.6-2.9.3 2.7-1.3 1.7-2.1 2.3-2.5zm21.1-3.9l-2.3.1.3-1.3 1.8-1.4 2-.4 1.1.7-.7 1.1-.4.4zm-35-5.1l-2 .9-1.9-.8-1.8.3-1.7-1.1 2.4-.8 2.3-1.1 1.4.7.8.5.1.5zm24.8 67l-1-1.7 1.4-4-.7-.8-1.8.5-.5-.8-2.6 2.2-1.5 2.3-1.3 1.3-1.2.5-.8.2-.5.7h-8l-1.3.6-3.3 2.1-.4.2-1.2 1.2h-4.6l-1.3.5.2.6-.1.9-.2.3-3.7 1.4-2.6.5-3.4 1.6h-.6l-.7-.5-.1-.4.2-.3.9-1 1.7-1.7 1.4-1.7.6-2.6.5-2.7-1.9-1.4.5-.5-.2-.4h-.6l-.3-.5.2-.7-.6.3h-.6l.3-.3-.5-.3.1-.8-1.4-.9-1.5-1-1.8-1.2-1.7-1-2.4.8h-.8l-2.5-.7-2.1.3-1.9-.9-2.1-.4-1.6-.2-.4-.5.4-1.6h-.8l-.6 1.1H193.8l-2.6-2.9-.8-1.2-3.3-1.2.7-2.6 1.6-1.8-1.9-1.2 1.5-2.3-1-2.1 1.2-1.5 2.4-1.3 1.4-1.8-2.1-1.8.6-3.2.6-2-.8-1.3-.4-1.1.3-1.5-3 .9-3.6 1.6-.1-1.8-.3-1.3-1.3-.7-2-.1 16.8-15.3 11.5-9.6 2.8.6 1.6 1.2 1.7.3 3-1.1 3.3-.8 2.5.3 4.1-1.1 3.9-.6.1 1 2.1-.6 1.8-1.2 1 .3.7 2.3 4.5-1.7-1.9 1.9 2.8-.4 1.6-.8 2.1.2 1.8 1 3.6 1 2.2.4 2.1-.2 1.3 1.3-4 1.3 3 .6 5.6-.3 2.1-.5.7 1.6 3.3-1.3-1-1.1 2.1-.9 2.5-.1 1.8-.3 1 .6.7 1.4 2.3-.2 2.5 1.2 3.4-.4h2.8l1.1-1.6 2.1-.4 2.3.8-2 2.5 2.9-2.1 1.6.1 2.9-2.6-.7-1.5-1.4-1.1 2.7-2.7 3.8-1.8 2.1.4 1 1.1.1 2.8-2.7 1.2 3.1.5-2 2.6 4.1-2 1.1 1.7-2 1.9.6 1.7 3.4-1.8 3.1-2.3 2.2-2.7 2.5.2 2.6.3 1.7 1.3-.8 1.3-2.4 1.3.4 1.4-1.1 1.3-5.1 1.8-3.1.4-1.5-.8-1.5 1.3-3.5 2.2-1.4 1.2-3.7 1.8-3 .2-2.4 1.1-1.4 1.8-2.7.3-4 2.2-4.5 3.1-2.3 2.1-2.3 3.3 2.8.4-.7 2.6-.4 2.2 3.4-.6 3.3 1.2 1.6 1.1.8 1.3 2.3.8 1.7 1.2 3.6.2 2.2.3-1.7 2.4-.8 2.9.1 3.2 2 2.8 2.2-1 2.7-2.9 1-4.6-.8-1.5 4.3-1.3 3.5-2 2.2-2 .8-1.9-.2-2.3-1.4-2.1 4.1-2.9.5-2.5 1.8-4.3 1.8-.6 3.2.7 2 .3 2.1-.7 1.4.9 1.7 1.6.1 1 3.6.2-1.2 2.3-1.1 3.5 1.8.5.8 1.6 3.8-1.5 3.5-3.1 2-1.3.5 2.5 1.2 3.5 1 3.4-1.6 1.8 2.3 1.6 1.3 1.6 3.3.7 1.1.9v2.5l1.6.3.5 1.1-.9 3.3-2 1.1-2 1-4.2 1-3.7 2.4-4 .5-4.7-.6-3.5-.1-2.5.2-2.7 2.1-3.4 1.3-4.8 3.9-3.7 2.7 2.2-.5 5.2-3.8 5.7-2.5 3.6-.3 1.6 1.5-2.9 2-.3 3.1v2.2l2.7 1.5 4-.4 3.4-3.3-.5 2.1 1.2 1.1-3.5 1.9-5.8 1.8-2.8 1.2-3.3 2.1-1.8-.2.7-2.5 5-2.5-3.9.1zm-49.9-76.9l-2.2 1.1 4.9-.7 1.2 1.2 3.5-1.2.8.7-1 2.5 2-1.1 1.4-2.5 2-.3 1.4.4 1 1-1.3 2.3-1.2 1.8 2 1.2 2.4 1.2-1.3 1.1-3.3.2.4 1-1.5.9-3.2-.4-2.7-.7-2.4.2-4.4.9-5.3.3-3.7.3.1-1.2-1.9-.7-2 .3-.3-2 1.5-.3 3.4-.4 2.6.1 3-.5-3.1-.5-4.3.2-2.6-.1v-.9l5.5-1h-3l-2.5-.6 3.7-1.9 2.4-.9 6.7-1.5zm18.6-.8l-3.3 1.6-1.1-1.7 1-.3 2.6-.1zm51 .8l-.4.7-1.9-.1h-1.9l-2.3.3-.4-.2-1-1.2.8-.9 1-.2 4 .3zm-18.7-.1l.1 1.5 3.4-2 5.5-1 1.1 2.5-1.6 1.6 4.3-.7 2.5-.9 3.2 1.2 1.7 1.2-.5 1 3.8-.5.9 1.6 4 .9 1 1.1.4 2.3-4.3 1.2 3.6 1.7 2.8.6 1.6 2.3 3 .2-1.6 1.8-5.1 3.1-1.9-1.1-1.7-2.6-2.8.4-1.1 1.5 1.3 1.5 2.1 1.2.4.7v2.7l-1.7 1.9-2.2-.7-4-2.2 1.7 2.4 1.3 1.6-.2 1-5.1-1.1-3.6-1.6-1.7-1.3 1.1-.8-2.3-1.4-2.2-1.2-.4.7-6.1.5-1.2-1 2.6-1.9 3.8-.1 4.3-.3-.1-.9 1.5-1.4 4.2-2.5.1-1.1-.2-.9-2.2-1.3-3.3-.8 1.6-.7-.9-1.6-1.6-.1-.9-.9-1.6.8-3.7.3-6.6-.6-3.4-.7-2.8-.4-.9-.8 3-1.2h-2.7l1.6-2.5 3.3-2.2 2.8-.9 5.3-.7zm-23.7-1.7l1.7.5 3.5-.3-.2.7-2.8 1.2 1.7 1-2.4 2.2-4 1-1.6-.2-.4-1-2.7-1.9.8-.7 3.5.3-.5-1.6zm10.6 2.6l-3.7 1.8-2-.1.9-2.1 1.2-1.2 1.9-1 2.5-.7 3.7.1 2.9.6-4.7 2.1zm-54.4 3.4l-6.4 1.2.3-1.1-2.7-1.3 2-1 3.5-1.8 3.6-1.6.2-1.4 6.6-.4 1.9.5 4.5.1.9.7.7 1-3 .6-6.5 1.7-4.4 1.7zm58.8-8.7l-1.9.9-2.5-.1-1.5-.7 2.1-1 3.2-.6.7.8zm-4.3-4l.2 1.1-1.3 1.2-2.7 1.7-3.2.2-1.6-.4 1.6-1.3-3.1.2 2-1.8 1.8.1 3.6-.8 2.3.1zm-18.4 1.2l-.4.8 2.1-.4 1.7.1-1 1.2-2.4 1.1-6.5.3-5.8 1.1h-2.8l.7-.8 5-1-8.5.3-1.9-.4 5.4-2.3 2.6-.6 3.9.7 1.4 1.4 2.9.2.2-2.2 2.7-.8 1.5.2zm26.1-2l1.1.7h3.4l.7.7-1.3.9 1.5.5.6.6 2.3.1 2.4.2 3.3-.5 3.8-.2 2.7.1 1.1.9-.4 1-1.7.6-3.1.5-2.1-.3-5.5.4h-3.7l-2.7-.3-4-.7.7-1.3 1-1.2-.7-1-3.3-.2-1.3-.7 1.8-1zm-35.6-1.2l-2.7 1.7-2.5.8-1.8.1-4.6.9-3.3.4-1.7-.5h0l5.4-1.7 5.7-1.5 2.6.1zm38.1.2l-.8.1-3.1-.1.3-.7 3.4.1.8.4zm-27.6-.4l-4.1.7-1.6-.7 2.4-.7 2.8-.3 2 .4zm3.7-2l-2.7.5h-2.8l.5-.3 2.6-.7.8.1zm21.9 1.2l-3 .5-.8-.5.3-.8 1-.9h2.1l.8.2 1.1.7zm-6.4-.5l-.5.9-2.5-.3-1.9-.7-3.7-.1 2.5-.6-1.3-.5 1.1-.9 2.8.3 3.5.8zm25.5-2.9l1.2.7-3 .6-5.1 1.6-3.1.2-3.3-.3-.7-.9 1-.8 2.1-.5h-3.1l-.9-.7.1-1 2.3-.9 1.9-.5 1.9-.2-.1-.4 3.9-.1.7 1 2.3.4 2.2.4zm37.2-6.6l4 .2 3.2.2 2.4.5-.5.4-4.6.8-4.2.4-1.9.4h3.6l-4.9 1.2-3.2.5-4.4 1.7-3.8.3-1.5.5-5.3.2 2 .3-1.5.3.3 1.1-2.3.8-3.3.6-1.7.9-3 .6-.3.5 3.1-.1-.5.6-6 1.4-4-.7-5.5.4-2.3-.3-3.2-.1.9-1.1 3.8-.5.9-1.6 1.2-.2 3.6 1-.8-1.4-2.3-.5 2.3-.8 3.6-.5 1.3-.8-1.3-.8.5-1.1 4.4.1 1.1.2 3.4-.7-3.5-.2-5.9.1-2.1-.6-.4-.8-1.1-.6.4-.6 2.9-.4h1.9l3.5-.3 3.2-.7 1.9.1 1.1.5 2.3-.9 2.5-.3 3-.2 4.9-.1.6.2 4.9-.3 3.3.1zM502.5 107.1l.2.4-.3.3-.1.3.1.2-.1.1.2.1.1-.1.7.1v.3l1.3.1-.1 1.2-1 .5-1.8-.3-.4 1.1-1.2.1-.4-.4-1.3 1-1.1.1-1.1-.6-.8-1.3-1.1.4v-1.3l1.6-1.6-.1-.8 1.1.3.6-.5h2l.5-.6z" stroke-width=".34" stroke="#333" cursor="pointer" fill="#6bb537"/><path d="M324.4 407.8l2.8 6.5h3.7l-.2 1.2-1.5.9-1.1-.1-1.5-.3-2-.8-2.5-.4-3.5-1.6-3-1.6-4.6-3.2 2.1.6 4.1 1.9 3.4 1.1.6-1.3-.2-2 1.6-1.2zm-19.1-89.2l.4.7-.6 3.2-2.6 1.4.7 5.1-.4.9 1 1.2-1.5 1.9-1.3 2.8-.4 2.8.8 2.9-1 3.1 2.3 5.2.8.5.6 2.8-.7 3 .6 2.5-1.4 1.9.8 2.8 1.5 2.9-1.2 1.1.2 2.7.3 3.1 1.6 3.6-.8.6 1.7 3.5 1.4 1.1-.3 1.2 1.3.6.6 1.1-.8.6.9 1.7.5 4-.3 2.5.8 1.5v1.8l-1.3 1.3 1.4 3.1 1.3 1.1 1.4-.2.9 2.1 1.7 1.7 5.6.4 2.3.5-2-.1-.8.8-1.6 1 .8 2.7-.9.1-3-1-3.4-2h0l-3.6-1.6-1.6-1.9-.1-1.7-1.9-1.9-2.4-5-.1-2.8 1.6-2.3-3.9-.8 1.3-2.7-1-4.9 3.1 1.1-.9-6.2-1.9-.8.5 3.7-1.6-.4-.7-4.3-.9-5.5.5-2-1.6-3-1.1-3.4 1-.1.3-4.8.5-4.8.1-4.5-1.5-4.6.2-2.4-1-3.8.9-3.6-.4-5.9v-6.2l.1-6.8-.8-4.9-1-4.3 1.3-.7.6-1.6 1.5 2.1.5 2.1 1.5 1.3-.5 2.9 1.8 3.4 1.5 4.2z" stroke-width=".34" stroke="#333" cursor="pointer" fill="#fc4e2a"/><path d="M769.4 193.7l-2.1 1.4-2.3-.9-.5-2.6 1.1-1.4 2.7-.8 1.5.1.8 1.1-.9 1.3zm10.9-92.3l4.2 2.1 2.8 2.8h3.6l1.2-1.2 3.3-.8.6 2.6-.2 1.1 1.4 3.2.3 2.9-3.3-.5-1.3 1 2.2 2.6 1.8 3.5h-1.1l.9 1.6-2.6-1.8v1.7l-3 1.3 1.3 1.5-2.2-.1-1.7-.9-.5 2.1-1.8 1.6-1 1.9-3 .9-1.1 1.4-2.3.8.6-1.4-1-1.1.9-2-2.1-1.6-1.6 1-1.7 2.1-.6 2-2.4.1-.6 1.4 2.3 2 2.2.5.7 1.4 2.4.9 1.8-2.2 2.7 1.2 1.7.1 1.1 1.5-3.2.9-.5 1.6-1.7 1.5-.5 2.1 3.4 1.7 2.2 2.9 2.5 2.8 2.6 2.3.8 2.3-1.4.8 1.2 1.6 1.8.9.4 2.5v2.4l-1.3.3-1 3.2-1.1 4-1.6 3.6-3 2.8-3.1 2.5-2.9.3-1.3 1.4-1.1-1-1.2 1.5-3.4 1.5-2.6.5-.4 3.2-1.4.1-1.1-2.2.4-1.1-3.6-1-1.2.5-2.7-.8-1.5-1.2.1-1.7-2.4-.6-1.5-1.1-1.9 1.6-2.5.3h-2.1l-1.3.8-1.2.4.9 3.4h-1.4l-.3-.7-.3-1.3-1.8.9-1.2-.6-2.1-1.1.3-2.5-1.7-.6-1.1-2.8-2.7.5-.2-3.5 1.9-2.6-.4-2.5-.6-2.3-1.3-.7-1.3-1.8-1.4.3-2.9-.5.6-1.2-1.7-1.9-1.5 1.2-2.3-.7-2.5 1.9-1.9 2.3-2 .3-1.3-.8h-1.3l-2-.7-1.3.7-1.2 2.3-.7-2.4-1.4.6-3.1-.3-3.1-.7-2.3-1.3-2.1-.6-1.2-1.4-1.5-.5-3-1.9-2.3-.9-.9.7-4-2.1-2.9-1.9-1.5-3.4 1.9.4-.3-1.5-1.4-1.5-.4-2.5-3.6-3.5-4.5-1.3-1.3-2.3-2.3-1.4-.7-.8-.8-1.7-.3-1.2-1.7-.7-.7.3-1.4-2.8.5-.7-.6-.7 1.9-1.4 1.5-.6 2.8.4.3-1.9 3-.3.4-1.2 3.3-1.6.1-.7-.8-1.7 1.4-.8-4.2-5.1 4.3-1.2.9-.7-.5-5.3 5.1 1 .8-1.3-1.2-3 1.8-.3.9-1.9.8-.2 1.5 2 2.7 1.6 3.9 1.1 2.7 2.3.6 3.5 1.4 1.3 3.1.5 3.4.4 3.7 1.8 1.7.4 2.3 2.7 2.2 1.8 2.7-.1 5.3.7 3-.4 2.6.4 4.4 1.8h2.9l1.6.9 2-1.6 3.5-1 3.5-.1 2.3-1.1.9-1.6 1.2-1-.9-.9-1.4-1.2.2-1.9 1.5.3 2.8.6 1.5-1.6 3-1.1.6-2 1.2-.8 3.2-.4 2 .3-.3-1-3.4-2.1-2.5-.9-1.1 1-2.6-.4-1.1.4-1.3-1.2-.2-3-.2-2.2 3.4 1.1 2.1-1.8-.9-1.3V95l.6-.9-1.2-1.6-1.8-.7.8-1.4 2.4-.5 3-.1 4 .8 2.8 1.1 3.6 2.9 1.8 1.3 2.1 1.7 2.9 2.9z" stroke-width=".34" stroke="#333" cursor="pointer" fill="#b10026"/><path d="M514.8 243.2l-.3-.2-1.6.4-1.6-.4-1.3.2-4.3-.1.4-2.4-1.1-2-1.2-.5-.5-1.3-.7-.5v-.8l.7-2.1 1.2-2.9.8-.1 1.6-1.7 1-.1 1.5 1.3 1.8-1.1.3-1.2.5-1.2.4-1.5 1.5-1.3.5-2.1.5-.7.4-1.5.7-2 2.2-2.3.1-1 .3-.5-1.1-1.2.1-1 .7-.2 1.1 2 .2 2-.1 2 1.5 2.7h-1.5l-.7.2-1.2-.3-.6 1.4 1.6 1.8 1.2.5.3 1.2.9 2.1-.4.8-1.3 3.1-.7.5-.1 2.4.2 1.2-.2.9 1.3 1.6.2 1.1 1 1.5 1.2 1 .2 1.4.2.9-.1 1.6-2.2-.7-2.1-.8z" stroke-width=".34" stroke="#333" cursor="pointer" fill="#fd8d3c"/><path d="M563 243.4l-.8 1-1 .8-1.1 1.6-.5 1.4-.2 2.4-.6 1.2v2.2l-.8.9-.1 1.8-.4.2-.2 1.7.6 1.3.2 3.7.4 2.7-.3 1.6.5 1.8 1.5 1.7 1.4 3.8-1-.4-3.6.6-.7.3-.8 1.9.6 1.4-.6 3.5-.4 3.1.7.5 1.8 1.2.8-.6.1 3.3h-2l-1.1-1.7-.9-1.3-2-.4-.6-1.6-1.6 1-2.1-.5-.9-1.3-1.7-.3-1.2.1-.1-1h-.9l-1.2-.2-1.7.4h-1.1l-.7.2.2-3.6-.9-1.1-.1-1.8.4-1.9-.5-1.1-.1-1.9h-3.2l.2-1.1h-1.3l-.2.6-1.6.1-.7 1.7-.4.8-1.5-.4-.8.4-1.8.2-1-1.5-.6-1-.7-1.8-.7-2.3h-7.8l-1 .3h-.7l-1.1.4-.4-.9.7-.4.1-1.3.4-.7 1-.7.7.3.9-1.1h1.4l.2.9 1 .5 1.6-1.9 1.5-1.5.7-.9-.1-2.5 1.2-2.9 1.2-1.6 1.8-1.5.3-.9.1-1.1.4-1.1-.2-1.7.4-2.7.5-1.8.8-1.6.1-1.9.2-2.1 1.1-1.5 1.4-1 2.2 1.1 1.7 1.1 1.9.3 2 .5.8-1.8.4-.2 1.2.3 2.9-1.5 1.1.6.8-.1.4-.7 1-.3 2 .4h1.7l.9-.3 1.7 2.5 1.2.4.7-.5 1.2.2 1.5-.7.6 1.3 2.4 2-.1 3.5zM279.2 250.5l-1.1-.8-1.3-1-.8.5-2.3-.4-.6-1.3-.5.1-2.6-1.8-.4-.9 1-.2-.1-1.5.7-1.1 1.3-.2 1.1-1.9 1.1-1.6-.9-.7.5-1.8-.5-2.7.6-.8-.3-2.6-1-1.6.4-1.5.8.3.6-.9-.6-1.8.4-.4h1.3l2.1-2.1 1.1-.3.1-1 .7-2.5 1.6-1.4 1.6-.1.3-.6 2 .2 2.2-1.5 1.1-.7 1.4-1.4.9.2.7.8-.6 1-1.8.5-.7 1.5-1.1.9-.8 1.1-.5 2.1-.8 1.8 1.4.2.2 1.4.6.7.1 1.2-.3 1.1v.6l.7.3.6 1 3.4-.3 1.5.4 1.8 2.6 1.1-.3 1.9.1 1.5-.3 1 .5-.6 1.6-.6 1.1-.3 2.1.5 2 .7.9.1.7-1.4 1.5 1 .7.7 1 .8 3-.5.4-.5-1.8-.8-.9-.9 1-5.2-.1.1 1.9 1.5.3-.1 1.2-.5-.3-1.5.5v2.2l1.2 1.1.4 1.7-.1 1.3-1 8.3-1.4-1.6-.8-.1 1.7-3.1-2.1-1.4-1.6.3-1-.6-1.4.8-2-.3-1.6-3.2-1.2-.8-.9-1.4-1.8-1.4z" stroke-width=".34" stroke="#333" cursor="pointer" fill="#fc4e2a"/><path d="M259.7 225.2l-1.4-.7-.5-.6.3-.5v-.7l-.7-.7-1-.6-.9-.4-.1-.9-.7-.5.1.9-.6.7-.5-.9-.9-.3-.3-.6.1-.9.4-.9-.7-.5.6-.5.5-.4 1.7.8.6-.4.8.2.4.7.8.2.7-.7.5 1.7 1 1.2 1.1 1.3-1 .2-.1 1.2.6.5-.4.3v.6l-.2.6zM502.1 85.4l.1 1.1 2.3.7v1l2.3-.5 1.2-.8 2.6 1.1 1.1.9.7 1.5-.6.8.9 1 .7 1.5-.1 1 1.1 1.9-1 .3-.6-.4-.5.6-1.6.6-.8.7-1.7.6.5.9.3 1.2 1.3.7 1.4 1.3-.8 1.3-.8.4.5 1.9-.2.5-.8-.6-1.1-.1-1.6.6-2.1-.2-.3.8-1.2-.8-.8.2-2.5-.9-.5.6h-2l.3-2.1 1.1-2-3.4-.6-1.1-.7v-1.3l-.4-.7.2-1.9-.5-3.1h1.3l.6-1.1.4-2.6-.4-1 .4-.6 1.8-.1.5.6 1.4-1.4-.5-1.1-.2-1.6 1.7.4z" stroke-width=".34" stroke="#333" cursor="pointer" fill="#6bb537"/><path d="M511.2 179.2l-8.8 5.8-7.5 5.9-3.7 1.3-2.9.3-.1-1.9-1.2-.5-1.6-.8-.6-1.5-8.8-6.5-8.8-6.6-9.6-7.3.1-.6h0V163l4.2-2.2 2.6-.5 2.1-.8 1-1.5 3-1.2.1-2.2 1.5-.3 1.2-1.1 3.3-.5.5-1.2-.7-.6-.9-3.2-.1-1.8-.9-2 2.4-1.6 2.7-.5 1.6-1.3 2.4-.9 4.2-.5 4.1-.3 1.3.5 2.3-1.2h2.6l1.1.7 1.7-.2-.5 1.5.5 2.9-.5 2.5-1.5 1.7.2 2.2 2.2 1.8v.8l1.6 1.2 1.2 5.4.9 2.7.2 1.4-.4 2.4.2 1.4-.3 1.7.3 1.8-1 1.3 1.6 2.2.1 1.3.9 1.7 1.2-.6 2.1 1.4zM266.2 260.3l1.4-2.3-.6-1.3-1 1.4-1.6-1.3.5-.9-.5-2.7.9-.5.5-1.8 1-2-.1-1.2 1.4-.7 1.9-1.2 2.6 1.8.5-.1.6 1.3 2.3.4.8-.5 1.3 1 1.1.8.4 2.2-.8 2-2.9 3.2-3.1 1.2-1.6 2.6-.4 2-1.5 1.3-1.2-1.6-1.1-.3-1.1.2-.1-1.1.8-.7z" stroke-width=".34" stroke="#333" cursor="pointer" fill="#fd8d3c"/><path d="M576.1 183.7h-30.9l-.5-11.2-.6-10.7-.9-2.4.5-1.9-.5-1.3.8-1.4 3.4-.1 2.5.8 2.6.9 1.2.5 1.9-1 1-.8 2.2-.3 1.9.4.8 1.5.5-1 2.1.7 2 .2 1.2-.7 2.1 5.1-.6 1.2-.3 2.3-.6 1.6-.6.5-.9-1-1.3-1.3-2.1-4.3-.3.3 1.3 3.1 1.9 3.1 2.3 4.7 1 1.6 1 1.7 2.5 3.3-.5.6.2 1.9 3.2 2.7zM458 123.8l.2-2.1-.9-1.3 3.5-2.2 2.9.6h3.3l2.5.5 2-.2 3.9.1 1 1.2 4.4 1.3.9-.6 2.7 1.3 2.8-.4.2 1.8-2.3 2-3.1.6-.2 1-1.5 1.6-1 2.5 1 1.7-1.5 1.3-.5 2-1.9.6-1.8 2.3-3.1.1-2.4-.1-1.6 1.1-1 1.1-1.2-.2-.9-1.1-.6-1.7-2.4-.5-.1-1 .9-1.1.4-.8-.8-.9.7-2-.9-1.8 1-.2.2-1.4.4-.5.1-2.3 1.1-.8-.6-1.5-1.4-.1-.5.4h-1.4l-.5-1.5-1.1.4z" stroke-width=".34" stroke="#333" cursor="pointer" fill="#ffeda0"/><path d="M583.8 206.2h1.8l2.4 1.2.7 1.1 1.2.9 1.2 1.8.9 1-.9 1.3-.8 1.4.2.9.1.9h1.5l.6-.2.6.5-.5 1.1 1 1.7 1.1 1.4 1 1.1 8.8 3.6h2.2l-7.3 9-3.5.1-2.3 2.2h-1.7l-.7 1h-1.8l-1.1-1-2.4 1.2-.8 1.3-1.8-.3-.6-.3-.6.1-.8-.1-3.4-2.5h-1.9l-.9-1v-1.7l-1.4-.5-1.6-3.3-1.3-.7-.5-1.2-1.3-1.5-1.7-.2.9-1.7 1.4-.1.4-.9-.1-2.7.7-3.2 1.2-.8.2-1.2 1.1-2.3 1.6-1.5.9-3 .3-2.6 3.1.6.8-2.2 1.6 1.4 1.5-.8z" stroke-width=".34" stroke="#333" cursor="pointer" fill="#feb24c"/><path d="M535.3 47.2l.2 1.8 3.4 1.7-1.3 2 3 3-.8 2.2 2.3 2-.4 1.8 3.5 1.8-.4 1.4-1.6 1.6-3.8 3.5-3.8.2-3.5 1-3.4.6-1.5-1.5-2.1-.9v-2.7l-1.4-2.5.7-1.6L526 61l4.1-2.9 1.2-.6-.4-1.1-3-1.3-.9-1-.9-4-3.3-1.7-2.9-1.3 1.1-.6 2.4 1.3 2.5-.1 2.2.6 1.6-1.1.5-1.9 2.8-.9 2.7 1z" stroke-width=".34" stroke="#333" cursor="pointer" fill="#6bb537"/><path d="M466.1 88.6l-1.7-.6-1.4.1.6-1.6-.4-1.5 1.8-.1 2.4 1.7zm7.4-13.5l-2.4 3.1 2.3-.4h2.3l-.6 2.3-2 2.5 2.3.2.2.3 1.9 3.3 1.5.5 1.4 3.3.7 1.1 2.7.6-.2 1.8-1.2.9.9 1.5-2 1.5-3.1-.1-3.9.8-1.1-.5-1.6 1.3-2.1-.3-1.6 1.1-1.2-.6 3.4-3 2.1-.6h0l-3.6-.5-.6-1.2 2.4-.9-1.2-1.5.5-1.9 3.3.2h0l.4-1.6-1.5-1.8h0l-2.7-.5-.5-.8.8-1.3-.7-.8-1.2 1.4v-2.7l-1.1-1.5.9-2.9 1.8-2.3 1.7.3z" stroke-width=".34" stroke="#333" cursor="pointer" fill="#fed976"/><path d="M482.8 232.1l-4.2 1.8-1.4 1-2.4.9-2.4-.9.1-1.2-1.1-2.5.7-3.5 1.1-2.5-.7-4.3-.4-2.2.1-1.8 4.6-.1 1.2.2.8-.5 1.3.3-.2.9 1.1 1.6v2.2l.2 2.3.7 1.1-.6 2.7.2 1.5.7 2z" stroke-width=".34" stroke="#333" cursor="pointer" fill="#fd8d3c"/><path d="M539.3 142.3l1.5 1 1.9-.1 1.9.2v.5l1.3-.4-.2.9-3.6.3v-.5l-3.1-.6zm4.4-15.3l-1.5-.1-1.3-.3-2.9.8 1.9 1.6-1.2.5h-1.4l-1.4-1.5-.4.7.7 1.7 1.4 1.5-.9.6 1.5 1.4 1.3.9.2 1.7-2.4-.8.9 1.5-1.6.3 1.2 2.7h-1.7l-2.1-1.3-1.1-2.4-.6-2-1.1-1.4-1.4-1.7-.2-.9 1-1.4v-1l.8-.4v-.8l1.6-.3.8-.6h1.4l.3-.5.5-.1 1.8.1 1.8-.8 1.9 1 2.2-.3-.2-1.4 1.3.7-.6 1.9z" stroke-width=".34" stroke="#333" cursor="pointer" fill="#fed976"/><path d="M242 208.6l-1.3-.5-1.6-.1-1.2-.6-1.3-1.2.2-.9.4-.7-.3-.6 1.5-2.5h3.4l.2-1-.4-.2-.3-.6-.8-.7-.9-1h1.2l.2-1.7h4.9l-.3 2.4-.6 3.4h.8l.8.5.2-.4.8.4-1.4 1.1-1.3.9-.2.5.1.6-.6.8-.7.2.1.3-.5.4-1 .7z" stroke-width=".34" stroke="#333" cursor="pointer" fill="#ffeda0"/><path d="M249.2 210.8l-.4-.9-.8-.3.3-1.2-.3-.3-.6-.2-1.1.3-.1-.4-.8-.4-.5-.6-.7-.3.6-.8-.1-.6.2-.5 1.3-.9 1.4-1.1.2.1.7-.5.7-.1.2.3.5-.2 1.2.3 1.2-.1.9-.3.3-.4.8.2.6.2.7-.1.6-.2 1.1.4h.5l.7.6.7.7.9.4.6.9-.9-.1-.4.4-.9.4h-.7l-.6.4-.5-.1-.4-.5-.3.1-.4.7h-.3l-.1.6-1 .8-.5.4-.3.4-.7-.6-.7.8-.5-.1-.7.1v1.5h-.4l-.4.7z" stroke-width=".34" stroke="#333" cursor="pointer" fill="#feb24c"/><path d="M518.2 109l.7-1.9-.5-.6h1.3l.1-1.2 1.2.7.9.4 1.9-.4.2-.6.9-.1 1.1-.4.3.2 1-.4.5-.7.7-.2 2.6.9.5-.3 1.4.8.3.8-1.4.6-.9 2-1.2 2-1.9.6-1.4-.2-1.8.8-.8.5-2.1-.6-1.8-1.3-.8-.3-.6-1z" stroke-width=".34" stroke="#333" cursor="pointer" fill="#6bb537"/><path d="M800 280.9h-1.1l-3.3-2.1 2.5-.6 1.3.9.9 1zm11.7-4.1l.2.6v.9l-2 2.3-2.3.6-.3-.3.3-1 1.3-1.9zm-18.6-2.4l.9.8 1.6-.2.6 1.3-3.1.6-1.9.4-1.4-.1 1-1.7h1.5zm13.3 0l-.6 1.7-4 .8-3.5-.3.1-1.1 2.1-.7 1.6.9 1.8-.2zm-37.7-4l5.1.3.6-1.2 4.9 1.4.8 2 4 .6 3.1 1.7-3.1 1.2-2.9-1.2-2.4.1-2.7-.3-2.4-.5-3.1-1.2-1.9-.3-1.1.4-4.8-1.2-.4-1.3-2.4-.2 2-2.9 3.2.2 2.1 1.1 1.1.3zm69.5-1.7l-1.5 2.1-.1-2.3.5-1.1.6-1 .6.9zm-19.4-8.3l-1.1 1-1.8-.5-.5-1.3 2.7-.2zm8.6-1.1l.8 2.3-2.1-1.2-2.3-.3-1.5.2-1.8-.1.7-1.6 3.3-.1zm28.1-1.5l-.5 9.9-.8 9.8-2.1-2.5-2.7-.6-.7.9-3.4.1 1.4-2.5 1.7-.8-.4-3.3-1.2-2.5-5-2.6-2.1-.2-3.9-2.8-.8 1.4-1.1.3-.5-1.1V260l-1.9-1.5 2.9-1.1 1.9.1-.2-.8h-3.9l-1.1-1.8-2.3-.6-1.1-1.5 3.6-.7 1.3-1 4.3 1.3.4 1.1.6 4.9 2.7 1.8 2.4-3.2 3.1-1.9h2.3l2.3 1.1 1.9 1.1zm-41.9-12.1l-2.1 3-2 .6-2.6-.6-4.4.2-2.3.4-.4 2.3 2.3 2.6 1.5-1.3 5-1-.3 1.3-1.1-.4-1.2 1.8-2.4 1.1 2.4 3.9-.5 1 2.2 3.5-.1 2-1.5.9-1-1.1 1.4-2.4-2.6 1.1-.6-.8.4-1.2-1.9-1.7.3-3-1.8.9.1 3.6-.1 4.3-1.7.4-1.1-.9.9-2.8-.3-2.9H797l-.8-2 1.2-2 .4-2.4 1.4-4.6.6-1.2 2.2-2.2 2.1.8 3.4.5 3-.2 2.6-2.2zm9.2.9l-.1 2.6-1.4-.3-.4 1.9 1.1 1.6-.8.3-1-1.9-.8-3.9.5-2.4.8-1.1.2 1.7 1.6.3zm-50.7-2.7l.4 2.1 1.9 1.7 1.7-.6 1.7.2 1.5-1.6 1.3-.2 2.5.8 2.2-.6 1.3-4.2 1-1.1.7-3.4h3.1l2.3.5-1.4 2.7 2.1 2.9-.5 1.4 3.1 2.8-3.2.3-.9 2.1.2 2.7-2.6 2.1-.2 3-1.2 4.6-.3-1.1-3.1 1.4-1-1.9-1.9-.1-1.3-1-3.2 1.1-.9-1.5-1.7.2-2.2-.4-.3-4-1.3-.8-1.3-2.6-.4-2.7.3-2.7zm-10.7 23.7l-3 .1-2.1-2.5-3.3-2.5-1.1-1.8-1.9-2.5-1.3-2.2-1.9-4.2-2.4-2.6-.8-2.5-1-2.4-2.4-1.9-1.5-2.6-2.1-1.7-2.9-3.3-.3-1.5 1.8.1 4.1.6 2.5 2.9 2.1 2.1 1.5 1.2 2.6 3.3h2.7l2.3 2.1 1.6 2.5 2 1.4-1.1 2.4 1.6 1.1.9.1.4 2.1.9 1.7 2 .2 1.2 1.9-.8 3.8zM675.1 143l3.6 3.5.4 2.5 1.4 1.5.3 1.5-1.9-.4 1.5 3.4 2.9 1.9 4 2.1-1.3 1.3-.4 2.9 2.7 1.1 2.7 1.5 3.7 1.7 3.6.4 1.7 1.5 2.1.3 3.2.7 2.2-.1v-1.2l-.7-1.9v-1.3l1.4-.6.7 2.4.2.6 2.5 1.1 1.6-.4 2.2.2 2.1-.1-.2-1.9-1.3-1 2-.3 1.9-2.3 2.5-1.9 2.3.7 1.5-1.2 1.7 1.9-.6 1.2 2.9.5.4 1.1-.7.6.6 1.8-2-.5-2.9 2.1.5 1.7-1 2.5.1 1.5-.7 2.5-2.2-.7.4 3.1-.4 1 .5 1.3-1.2.7-2.1-4.8-.7.1-.2 1.9-1.6-1.6.5-1.7 1.2-.2.7-2.5-1.5-.5h-2.4l-2.6-.4-.6-2.1-1.2-.2-2.3-1.3-.6 2.1 2.2 1.6-1.5 1.1-.4 1.1 1.8.8-.2 1.8 1.2 2.3.8 2.5-.2 1.1-1.8-.1-3.1.7.4 2.2-1.1 1.8-3.5 2.1-2.5 3.5-1.8 1.9-2.4 2 .2 1.4-1.2.7-2.3 1.1-1.2.2-.6 2.3.9 3.9.4 2.5-.9 2.8.3 5.2-1.4.1-1 2.3.8 1-2.4.9-.8 2-1 .9-2.6-2.8-1.5-4.3-1.2-3-1-1.4-1.6-2.9-1-3.8-.6-1.9-2.7-4.1-1.7-5.9-1.2-3.8-.4-3.7-.8-2.8-3.6 1.8-1.9-.4-3.8-3.6 1.1-1.1-.9-1.2-3.3-2.5 1.5-2.1h5.7l-.9-2.5-1.6-1.6-.7-2.3-1.9-1.3 2.4-3.2 3 .2 2.1-3.1 1.1-3.1 1.8-3-.5-2.2 1.8-1.7-2.4-1.5-1.3-2.1-1.6-2.6.9-1.3 4 .7 2.7-.4z" stroke-width=".34" stroke="#333" cursor="pointer" fill="#b10026"/><path d="M614.1 137.8l2.1-.5 1.4-1.8 1.7.1 1-.5 1.8.2 3.1 1.6 2 .3 3.5 2.7 1.8.1.8 2.5-.2 3.7-.3 2.2 1.2.5-.8 1.6 1.3 2.4.6 2 2 .5.5 1.9-1.8 2.7 1.5 1.6 1.3 1.9 2.6 1.3.5 2.6 1.3.5.4 1.4-3.5 1.6-.5 3.5-5-.9-2.9-.7-3-.4-1.5-3.7-1.3-.6-2 .6-2.4 1.4-3.3-1-2.8-2.3-2.6-.8-2.1-2.9-2.4-4-1.3.5-1.8-1-.8 1.1-1.6-1.5-.2-1.6h-.8l.1-2.2-1.7-2.3-3.3-1.7-2.2-2.8.3-2.4 1.1-1-.5-1.8-1.8-.9-2.2-3.6-1.8-2.4.4-.9-1.4-3.5 1.5-.8.6 1.1 1.5 1.4 1.8.4.9-.1 2.5-2.2.8-.2.9.9-.5 1.4 1.8 1.6.6-.1 1.2 2.2 2.5.6 2 1.5 3.6.5 3.7-.8z" stroke-width=".34" stroke="#333" cursor="pointer" fill="#fd8d3c"/><path d="M593.6 141.5l1.8.9.5 1.8-1.1 1-.3 2.4 2.2 2.8 3.3 1.7 1.7 2.3-.1 2.2h.8l.2 1.6 1.6 1.5-1.5-.1-1.8-.2-1.5 2.8-4.8-.2-7.9-6.1-4-2.1-3.2-.8-1.5-3.7 5.2-3.1.5-3.6-.6-2.2 1.3-.8.9-1.9 1-.4 3 .4 1 .7 1.1-.5z" stroke-width=".34" stroke="#333" cursor="pointer" fill="#fd8d3c"/><path d="M518.4 134.7l-.7 2.4.4.9-.4 1.6-2-1.2-1.3-.3-3.5-1.5.2-1.6 3 .3 2.5-.3zm-15.9-8.9l1.5 2.1-.2 4-1.1-.2-1 1-.9-.8-.2-3.6-.7-1.7 1.4.1zm10.2-15.8l-.2 1.5.7 1.3-2-.5-1.8 1.1.2 1.5-.3.8.9 1.5 2.4 1.5 1.3 2.5 2.9 2.4h1.9l.6.6-.6.6 2.3 1.1 1.8.9 2.2 1.6.3.5-.3 1.1-1.5-1.4-2.2-.5-.9 1.9 1.9 1.1-.2 1.6-1 .2-1.2 2.6-1 .2-.1-.9.5-1.6.5-.7-1.1-1.7-.9-1.5-1-.4-.8-1.3-1.6-.5-1.1-1.2-1.9-.2-1.9-1.4-2.4-1.9-1.7-1.7-.9-3-1.2-.3-2-1-1.1.4-1.3 1.4-1 .2.2-1.3-1.3-.4-.7-2.3.8-.9-.7-1.1v-.8l1.1.6 1.1-.1 1.3-1 .4.4 1.2-.1.4-1.1 1.8.3 1-.5.1-1.2 1.5.4.2-.5 2.3-.5.6 1z" stroke-width=".34" stroke="#333" cursor="pointer" fill="#6bb537"/><path d="M819.3 147l.8 1-.7 1.9-1.4-1-1 .7v1.8l-2-.9-.5-1.4.6-1.8 1.6.3.4-1.2zm11.5-9l.3 2.4 1.2 1.5-.3 2.1-2.5 1.5-4.4.1-2 3.5-2.2-1.2-1.1-2.2-4.1.6-2.4 1.5h-2.9l3.5 2.2.4 5.2-1.2 1.2-1.7-1.1-.4-2.8-2-.8-1.8-2.1 2-.9.5-1.9 1.8-1.6.9-2.1 4.6-.9 3 .7v-5.4l2.4 1.5 2.1-3.1.8-1.1-.5-3.7-2.4-3.4-.1-1.9 2.3-.5 3.8 4.1 1.3 2.5-.6 3zm-5.5-21l2.1.6.8-1.3 2.9 3.4-3.1.8-.1 3-5.2-2.1.8 3.3h-2.7l-2.2-2.9-.3-2.3 2.5-.2-2.1-4.1-.9-2.3 5 3.1zM590.8 255.1l-1.9 1.2-.7 1.2-1 .3-.4 2.1-.9 1.2-.5 2-1.1 1-3.8-3-.1-1.8-9.6-6.1-.5-.3v-3.2l.8-1.3 1.3-1.9.9-2.2-1.2-3.5-.3-1.5-1.3-2.1 1.6-1.8 1.8-2 1.4.5v1.7l.9 1h1.9l3.4 2.5.8.1.6-.1.6.3 1.8.3.8-1.3 2.4-1.2 1.1 1h1.8l-2.3 3.4.1 11z" stroke-width=".34" stroke="#333" cursor="pointer" fill="#ffeda0"/><path d="M459.5 236.8l-.7.1-2.8-1.5-2.4-2.3-2.2-1.6-1.8-2 .6-.9.2-.9 1.2-1.6 1.2-1.5h.6l.7-.4 1.1 1.9-.2 1.2.5.6.8.1.5-1.3.8.1-.1.9.2 1.5-.6 1.3.8.8.8.2 1.2 1.3v1.2l-.2.4zM518.7 181.1l-1.9 1.1-1.5-1.7-4.1-1.3-1.2-1.9-2.1-1.4-1.2.6-.9-1.7-.1-1.3-1.6-2.2 1-1.3-.3-1.8.3-1.7-.2-1.4.4-2.4-.2-1.4-.9-2.7 1.3-.7.1-1.3-.3-1.2 1.7-1.2.8-.9 1.2-.9.1-2.3 3 1 1-.3 2.2.5 3.4 1.4 1.3 2.7 2.3.6 3.7 1.2 2.8 1.5 1.2-.8 1.1-1.3-.7-2.4.7-1.4 1.7-1.4 1.8-.4 3.4.6 1 1.3h.9l.9.5 2.5.4.7 1-.8 1.4.5 1.3-.5 1.9.9 2.4.6 10.7.5 11.2.2 6h-3v1.3l-10.6-5.8-10.6-5.8z" stroke-width=".34" stroke="#333" cursor="pointer" fill="#6bb537"/><path d="M697.3 227.3l-.3 3.2-1.1.8-2.3.7-1.3-2.4-.7-4.3 1-4.9 1.9 1.6 1.3 2.2z" stroke-width=".34" stroke="#333" cursor="pointer" fill="#ffeda0"/><path d="M474.6 143.9l.9 2 .1 1.8.9 3.2.7.6-.5 1.2-3.3.5-1.2 1.1-1.5.3-.1 2.2-3 1.2-1 1.5-2.1.8-2.6.5-4.2 2.2v3.8h-11.4l1.9-1.7 3.8-2 1.3-.9 2.2-2.5-.5-3.7 1-2.6.4-1.6 1.7-2 2.6-1.4 1.9-1.3 1.7-3.1.9-1.8h1.8l1.5 1.3 2.4-.3 2.6.7z" stroke-width=".34" stroke="#333" cursor="pointer" fill="#fed976"/><path d="M611.1 287.6l.6 1.3.6 2 .2 3.6.6 1.4-.4 1.5-.5.9-.8-1.8-.5.9.3 2.2-.3 1.3-.8.7-.3 2.5-1.3 3.6-1.6 4.1-2 5.7-1.4 4.2-1.4 3.5-2.2.7-2.4 1.3-1.4-.8-1.9-1-.6-1.6v-2.7l-.8-2.4v-2.2l.6-2.2 1.2-.5.1-1 1.4-2.3.4-1.9-.6-1.4-.3-1.9-.1-2.8 1.1-1.7.4-1.9 1.3-.1 1.5-.6 1-.6h1.2l1.6-1.7 2.3-1.9.8-1.5-.2-1.3 1.1.4 1.5-2.1.2-1.8.9-1.4z" stroke-width=".34" stroke="#333" cursor="pointer" fill="#6bb537"/><path d="M248.4 194.2h-.5l-1.2 1.9-.5-.4-.3.2v.4H241l-.2 1.7h-1.2l.9 1 .8.7.3.6.4.2-.2 1h-3.4l-1.5 2.5.3.6-.4.7-.2.9-2.6-3.3-1.3-1-2-.8-1.5.3-2.3 1.1-1.3.3-1.8-.8-1.9-.6-2.3-1.4-1.9-.4-2.8-1.4-2-1.4-.5-.8-1.5-.2-2.5-1-.9-1.3-2.5-1.8-1-1.9-.4-1.4.9-.3-.1-.9.7-.8.2-1-.7-1.4v-1.2l-.6-1.5-1.8-3-2.2-2.3-.9-1.9-1.9-1.2-.3-.8.8-1.8-1.2-.7-1.1-1.5-.1-2.1-1.3-.3-1.1-1.6-.8-1.4.1-1-.7-2.2-.2-2.3.4-1.2-1.4-1.2-.9.1-1.2-.8-.8 1.2v1.5l-.5 2.2.5 1.3 1.3 2.1.2.7.3.2.1 1h.5v1.9l.5.8.3 1.1 1.3 1.5.1 2.8.5 1.3.4 1.4-.1 1.6 1.2.1.8 1.4.7 1.3-.2.6-1.3 1.1h-.4l-.4-1.9-1.4-1.7-1.5-1.4-1.2-.8.5-2.2v-1.6l-1-1-1.4-1.3-.5.4-.4-.8-1.4-.8-1.1-1.7.3-.2 1 .1 1.2-1.1.5-1.3-1.4-2.2-1.2-.8-.4-1.9-.3-2-.4-2.4-.1-2.7 3-.2 3.3-.4-.4.6 3.3 1.5 5.1 2.1h7.1l.4-1.3h4.4l.6 1.1 1 1 1.1 1.3.4 1.6.2 1.6 1.1.9 1.9.9 2.2-2.3 2.1-.1 1.5 1.2.8 2.1.5 1.7 1.1 1.7.1 2.2.4 1.4 1.8.9 1.7.7 1-.1-1.5 2.6-.8 2.2-.9 4-.5 1.5.2 1.7.6 1.4.2 2.4 1.4 2.2.3 1.7.9 1.5 2.6.8.9 1.3 2.5-.9 2-.3 2-.5 1.8-.5 1.8-1.3.9-1.7.5-2.5.6-.9 1.9-.8 2.8-.7 2.3.1 1.7-.3.5.7-.3 1.4-1.6 1.8-.9 1.9.4.5-.6 1.3-.9 2.3-.6-.7z" stroke-width=".34" stroke="#333" cursor="pointer" fill="#fc4e2a"/><path d="M571.5 284.7l2-.2 3.2.8.7-.3 1.8-.1 1-.9h1.6l2.9-1.1 2.2-1.8.4 1.4-.3 3 .3 2.6-.1 4.7.4 1.5-.9 2.2-1.1 2.1-1.8 1.8-2.5 1.2-3 1.4-3.1 3.3-1.1.5-1.9 2.2-1.1.7-.4 2.1 1.1 2.3.4 1.8v.9l.5-.2-.2 3-.5 1.4.5.5-.4 1.2-1.2 1.1-2.2 1-3.2 1.7-1.2 1.1.1 1.3.7.2-.4 1.5h-1.9l-.1-1.3-.3-1.4-.2-1 .7-3.4-.6-2.2-1-4.2 2.9-3.4.8-2.2.4-.3.4-1.7-.4-.9.2-2.3.7-2.1.1-3.8-1.3-1-1.3-.2-.5-.7-1.2-.7-2.2.1-.1-1.1-.2-2.2 8.1-2.5 1.5 1.5.7-.3 1 .8.1 1.2-.6 1.4.1 2.1 1.7 1.9.9-2.1 1.1-.7v-3.8l-1.1-2.2-.9-1-.9.1-.6-4z" stroke-width=".34" stroke="#333" cursor="pointer" fill="#fd8d3c"/><path d="M571.5 284.7l-.8 2.3.6 4 .9-.1.9 1 1.1 2.2v3.8l-1.1.7-.9 2.1-1.7-1.9-.1-2.1.6-1.4-.1-1.2-1-.8-.7.3-1.5-1.5-1.4-.7.9-2.8.9-1.1-.4-2.5.6-2.4.5-.9-.7-2.5-1.2-1.4 2.6.6.5.8.9 1.4z" stroke-width=".34" stroke="#333" cursor="pointer" fill="#fd8d3c"/><path d="M751.5 231.2l.7.3 1.6 1.8 1.2 2.1.3 2-.2 1.4.2 1 .3 1.8 1 .8 1.1 2.7.1.8-.4.3-1.1.4-.4-.2-2.7-2.3-3.2-2.4-.4-1.6-1.6-2-.5-2.5-1-1.6.2-2.2-.7-1.3.5-.5 2.2 1.3.3 1.5 1.7-.3zm42.2 6.3l-2.3-.5h-3.1l-.7 3.4-1 1.1-1.3 4.2-2.2.6-2.5-.8-1.3.2-1.5 1.6-1.7-.2-1.7.6-1.9-1.7-.4-2.1 1.9 1.1 2.1-.6.5-2.5 1.1-.6 3.1-.7 1.9-2.3 1.2-1.9 1.3 1.5.5-1 1.3.1v-1.9l.1-1.5 1.9-2.1 1.2-2.4h1.1l1.4 1.5.2 1.3 1.8.9 2.3.9-.1 1.2-1.8.1.5 1.5z" stroke-width=".34" stroke="#333" cursor="pointer" fill="#6bb537"/><path d="M502.6 235.6l-2.7 1.1-1.1-.2-1 .7-2.1-.1-1.4-1.8-.9-2.2-1.9-2h-4.3l.1-4.8-.1-2 .5-1.9.8-.9 1.3-1.8-.3-.9.6-1.2-.6-1.8.1-1 .1-2.7.8-1.2.4-1.7.6-.7 2.9-.3 2.6 1.1 1 1.1 1.4.1 1.2-.7 3.2 1.5 1.4-.1 1.5-1.2 1.6.1.7-.5 1.5.2 2 .9 2.1-1.7.6.1 1.8 3.3h.5l1.1 1.2-.3.5-.1 1-2.2 2.3-.7 2-.4 1.5-.5.7-.5 2.1-1.5 1.3-.4 1.5-.5 1.2-.3 1.2-1.8 1.1-1.5-1.3-1 .1-1.6 1.7-.8.1-1.2 2.9z" stroke-width=".34" stroke="#333" cursor="pointer" fill="#e31a1c"/><path d="M252.9 216.6l-.8-1-1.1-1.2-.5-1-1.1-1-1.2-1.3.3-.5.4.5.3-.3.8-.1.4-.7h.4v-1.5l.7-.1.5.1.7-.8.7.6.3-.4.5-.4 1-.8.1-.6h.3l.4-.7.3-.1.4.5.5.1.6-.4h.7l.9-.4.4-.4.9.1-.2.3-.2.6.1 1.1-.7 1.1-.4 1.2-.2 1.3.1.8v1.3l-.4.3-.4 1.3.1.8-.6.8.1.8.4.5-.7.7-.8-.2-.4-.7-.8-.2-.6.4-1.7-.8z" stroke-width=".34" stroke="#333" cursor="pointer" fill="#ffeda0"/><path d="M495.6 89.7l.4 1-.4 2.6-.6 1.1h-1.3l.5 3.1-1.3-.7-1.5-1.3-2.1.6-1.7-.2 1.2-.8 1.8-4.3 3.1-1.2z" stroke-width=".34" stroke="#333" cursor="pointer" fill="#6bb537"/><path d="M667 138l2.3 1.4 1.3 2.3 4.5 1.3-1.8 2.5-2.7.4-4-.7-.9 1.3 1.6 2.6 1.3 2.1 2.4 1.5-1.8 1.7.5 2.2-1.8 3-1.1 3.1-2.1 3.1-3-.2-2.4 3.2 1.9 1.3.7 2.3 1.6 1.6.9 2.5h-5.7l-1.5 2.1-2-.8-1-2.2-2.3-2.3-4.7.6H643l-3.6.5.5-3.5 3.5-1.6-.4-1.4-1.3-.5-.5-2.6-2.6-1.3-1.3-1.9-1.5-1.6 4.5 1.6 2.5-.5 1.6.4.4-.6 1.8.2 3.1-1.2-.3-2.6 1.1-1.7h1.9l.1-.8 1.8-.4 1 .2.8-.8-.5-1.8.7-1.8 1.5-.8-1.5-2 2.4.1.5-1.1-.4-1.1.9-1.3-.6-1.5-.9-1.3 1.1-1.3 2.5-.6 2.8-.4 1.1-.5z" stroke-width=".34" stroke="#333" cursor="pointer" fill="#fc4e2a"/><path d="M273.1 228.2l-.9-.9-.5-1.6.7-.8-.6-.2-.5-1-1.3-.8-1.1.2-.6 1-1.1.8-.6.1-.3.6 1.2 1.6-.8.4-.4.5-1.2.1-.4-1.8-.4.5-.8-.1-.5-1.3-1.1-.2-.7-.3h-1.1l-.1.7-.3-.5.2-.6.2-.6v-.6l.4-.3-.6-.5.1-1.2 1-.2.9 1-.1.7 1.1.1.3-.2.6.7 1.4-.2 1.1-.8 1.7-.6.9-.9 1.5.2-.1.3 1.4.1 1.2.5.8.9 1 .9-.4.4.6 1.8-.6.9-.8-.3z" stroke-width=".34" stroke="#333" cursor="pointer" fill="#6bb537"/><path d="M297.2 303l-.6 1.6-1.3.7-2.8-1.7-.3-1.2-5.5-3.1-5.1-3.3-2.1-1.8-1.3-2.5.3-.9-2.5-3.9-3-5.6-2.8-6-1.2-1.4-.9-2.2-2.2-2-1.9-1.2.8-1.3-1.4-2.9.8-2.1 2-1.9.4 1.2-.8.7.1 1.1 1.1-.2 1.1.3 1.2 1.6 1.5-1.3.4-2 1.6-2.6 3.1-1.2 2.9-3.2.8-2-.4-2.2.7-.3 1.8 1.4.9 1.4 1.2.8 1.6 3.2 2 .3 1.4-.8 1 .6 1.6-.3 2.1 1.4-1.7 3.1.8.1 1.4 1.6-2.4-.2-.3.5-2.2.6-3 2-.1 1.4-.7 1.1.4 1.6-1.6.9v1.2l-.6.6 1.2 2.7 1.5 1.8-.5 1.3 1.8.2 1.1 1.6 2.3.1 2.1-1.8.1 4.6 1.2.3 1.5-.5 2.6 4.9-.5 1v2.1l.1 2.6-.9 1.5.6 1.1-.5 1 1.3 2.6z" stroke-width=".34" stroke="#333" cursor="pointer" fill="#fc4e2a"/><path d="M815.5 224.6l.4 2 .3 1.7-.7 2.8-1.2-3.1-1.1 1.5 1 2.3-.7 1.4-3.2-1.8-.9-2.2.7-1.4-1.8-1.4-.7 1.2-1.3-.1-1.9 1.7-.5-.9.9-2.5 1.6-.9 1.4-1.1 1 1.3 2-.8.3-1.3 1.9-.1-.4-2.3 2.3 1.4.3 1.5zm-6.8-5.6l-.9 1-.6 1.9-.8.9-1.8-2.1.5-.8.5-.8.2-1.9 1.4-.2-.2 2 1.6-2.9zm-14.3 2.9l-3.3 2.9 1.1-2.1 1.8-1.9 1.4-2.1 1.1-3 .7 2.5-1.6 1.6zm8.2-7.8l1.7 1h1.7l.1 1.2-1.1 1.3-1.6.9-.3-1.4.1-1.5zm9.5-.8l1.1 3.4-2.1-.8.1 1 .9 1.9-1.2.6-.3-2.1-.8-.1-.7-1.9 1.6.3-.1-1.2-1.9-2.3 2.5.1zm-10.8-2.7l-.4 2.6-1.3-1.5-1.7-2.3 2.3.1zm-3-16.4l1.7.9.7-.8.4.7-.2 1.3 1.2 2.2-.3 2.5-1.4 1v2.4l.9 2.4 1.5.3 1.1-.3 3.5 1.6-.1 1.7 1 .7-.1 1.4-2.2-1.5-1.2-1.6-.6 1.1-1.9-1.8-2.3.5-1.4-.7V207l.7-.8-.9-.7-.2 1.1-1.5-1.7-.6-1.4-.5-2.8 1.2.9-.5-4.7.4-2.7z" stroke-width=".34" stroke="#333" cursor="pointer" fill="#fd8d3c"/><path d="M458 123.8l.9-.8 1.1-.4.5 1.5h1.4l.5-.4 1.4.1.6 1.5-1.1.8-.1 2.3-.4.5-.2 1.4-1 .2.9 1.8-.7 2 .8.9-.4.8-.9 1.1.1 1-1 .8-1.3-.4-1.3.3.5-2.3-.2-1.9-1.1-.3-.5-1.1.2-2 1.1-1 .2-1.3.6-1.8-.1-1.2-.4-1.1z" stroke-width=".34" stroke="#333" cursor="pointer" fill="#feb24c"/><path d="M316.6 317.1l.7-3.6-.1-1.6 1-2.7 4.5-.9 2.4.1 2.6 1.5.2.9.9 1.7.2 4.1 2.8.6 1-.6 1.8.8.6.9.5 2.8.4 1.1 1 .2.9-.5 1 .5.2 1.7-.2 1.8-.3 1.7-.2 2.7-2 2.3-2 .5-2.9-.5-2.7-.8 1.9-4.6-.5-1.3-2.8-1.2-3.4-2.2-2.2-.5z" stroke-width=".34" stroke="#333" cursor="pointer" fill="#fd8d3c"/><path d="M533.3 106l.9-.6 1.5.3h1.5l1.2.7.7-.4 1.7-.3.5-.7h1l.7.3.9.9.9 1.2 1.6 1.8.3 1.3-.1 1.2.6 1.4 1.1.5 1.1-.5 1.1.5.2.8-1.1.6-.7-.2-.2 3.6-1.4-.4-1.9-1-2.8.7-1.1.7-3.5-.1-1.9-.5-.9.2-.9-1.2-.5-.5.5-.5-.6-.4-.7.7-1.5-.9-.3-1.2-1.5-.7-.4-1-1.4-1.1 1.9-.6 1.2-2 .9-2z" stroke-width=".34" stroke="#333" cursor="pointer" fill="#6bb537"/><path d="M592.6 200.7l-.4-1.3-.8-.9-.3-1.2-1.4-1.1-1.6-2.5-.9-2.5-1.9-2-1.2-.5-1.9-2.9-.5-2.1v-1.8l-1.7-3.3-1.3-1.2-1.4-.6-1-1.8.1-.6-.8-1.6-.8-.7-1.2-2.2-1.8-2.5-1.4-2h-1.3l.2-1.7.1-1 .2-1.2 2.9.4 1-.9.5-1.1 1.9-.4.3-1 .8-.5-2.8-3 4.9-1.5.4-.5 3.2.8 4 2.1 7.9 6.1 4.8.2 2.3.3.8 1.5 1.9-.1 1.3 2.6 1.3.7.6 1 1.9 1.3.3 1.3-.2 1 .4 1 .9.8.4 1 .5.7.8.6.7-.2.6 1.2.2.7 1.2 3 8 1.6.4-.7 1.4 2.2-1.2 6-7.6 3-7.5 1.2-2.3 1.3-1.7 3.2-1.2.5-.7-1-1 .1-2.6-.3-.5-.3-3 .1-.7.3-1.1-.8-.6 1.5.3 1.2zM570.1 221.5l-.4-.1v-1.5l-.3-1-1.4-1.2-.4-2.2.3-2.2-1.3-.2-.1.6-1.6.2.7.9.2 1.8-1.4 1.6-1.3 2.2-1.3.3-2.3-1.7-1 .6-.2.9-1.4.5-.1.7h-2.6l-.4-.7-1.9-.1-.9.6-.8-.3-1.4-1.8-.4-.8-1.9.4-.7 1.4-.7 2.7-.9.6-.8.3-.2-.1-.9-.9-.2-.9.4-1.3v-1.2l-1.6-1.9-.3-1.3v-.7l-1-.9-.1-1.8-.6-1.1-.9.1.3-1.1.6-1.2-.3-1.3.8-.9-.5-.7.6-1.9 1.2-2.2 2.2.2-.5-11.9v-1.3h3l-.2-6H576.1l1 2.9-.5.6.5 3.1 1.2 3.6 1.1.7 1.4 1.1-1.2 1.7-1.9.5-.8 1-.1 2-1 4.4.3 1.2-.3 2.6-.9 3-1.6 1.5-1.1 2.3-.2 1.2-1.2.8-.7 3.2z" stroke-width=".34" stroke="#333" cursor="pointer" fill="#fd8d3c"/><path d="M449.6 229.5l-.7-.2-1.9-1.2-1.4-1.6-.4-1.1-.4-2.2 1.5-1.4.3-.8.4-.7h.8l.6-.6h2.1l.8 1.1.5 1.3-.1.8.4.8v1.1l.7-.2-1.2 1.5-1.2 1.6-.2.9z" stroke-width=".34" stroke="#333" cursor="pointer" fill="#fed976"/><path d="M248 209.6l-.4.7h-1.5l-.9-.3-1-.6-1.5-.2-.7-.6.1-.5 1-.7.5-.4-.1-.3.7-.2.7.3.5.6.8.4.1.4 1.1-.3.6.2.3.3z" stroke-width=".34" stroke="#333" cursor="pointer" fill="#6bb537"/><path d="M578 149.3l-4.5 3.3-3-1.2v-.1l.2-.4-.1-1.3.4-1.6 1.2-1.1-.5-1.2-1.2-.2-.5-2.3.5-1.2.6-.7.5-.6V139l.8.6 2.7-.9 1.4.6h2l2.7-1.1h1.4l2.7-.5-.9 1.9-1.3.8.6 2.2-.5 3.6z" stroke-width=".34" stroke="#333" cursor="pointer" fill="#fed976"/><path d="M518.3 211.2l.3-1.4-1.7-.1v-1.9l-1.2-1.1 1.1-4 3.3-2.8.1-4 .8-6.1.6-1.3-1.1-1-.1-1-1-.8-.7-4.6 2.5-1.7 10.6 5.8 10.6 5.8.5 11.9-2.2-.2-1.2 2.2-.6 1.9.5.7-.8.9.3 1.3-.6 1.2-.3 1.1.9-.1.6 1.1.1 1.8 1 .9v.7l-1.7.5-1.3 1.2-1.9 3.3-2.5 1.4-2.5-.2-.8.3.3 1.1-1.4 1-1.1 1.2-3.3 1.2-.7-.7-.4-.1-.5.8-2.2.2.4-.8-.9-2.1-.3-1.2-1.2-.5-1.6-1.8.6-1.4 1.2.3.7-.2h1.5l-1.5-2.7.1-2-.2-2zM485 231.5l-2.2.6-.6-1-.7-2-.2-1.5.6-2.7-.7-1.1-.2-2.3v-2.2l-1.1-1.6.2-.9h2.3l-.4 1.6.9.9.9 1.1.1 1.4.5.7-.1 6.9zM751.4 213.2l-2.5-1.3h-2.2l.1-2.3h-2.3l.1 3.3-1 4.4-.7 2.7.4 2.1 1.7.1 1.3 2.8.6 2.6 1.6 1.7 1.6.4 1.4 1.5-.8 1.3-1.7.3-.3-1.5-2.2-1.3-.5.5-1.1-1.2-.5-1.4-1.5-1.7-1.4-1.5-.3 1.8-.6-1.7.2-1.9.5-2.9 1.1-3.1 1.2-2.8-1.3-2.7-.1-1.4-.5-1.7-2-2.4-.8-1.5.9-.6.6-2.6-1.3-2-2-2.2-1.6-2.6 1-.6.7-3.2 1.8-.2 1.4-1.3 1.4-.7 1.2 1 .5 1.8 1.8.1-.2 3.2.4 2.7 2.6-1.8.8.5 1.5-.1.4-1 2 .2 2.4 2.4.6 3 2.4 2.6.2 2.6-.7 1.4-2.5-.5-3.3.6-1.4 2.5z" stroke-width=".34" stroke="#333" cursor="pointer" fill="#fd8d3c"/><path d="M504.2 158.6l-1.2-5.4-1.6-1.2v-.8l-2.2-1.8-.2-2.2 1.5-1.7.5-2.5-.5-2.9.5-1.5 2.6-1.2 1.8.3v1.6l2.1-1.1.2.5-1.2 1.5v1.4l.9.7-.2 2.7-1.6 1.5.5 1.6 1.3.1.7 1.4 1 .5-.1 2.3-1.2.9-.8.9-1.7 1.2.3 1.2-.1 1.3zM581.2 124.8l2.6-.1 2.6 1.5.6 1v1.5l2 .7 1.1.9-1.5.8 1.4 3.5-.4.9 1.8 2.4-1.1.5-1-.7-3-.4-1 .4-2.7.5h-1.4l-2.7 1.1h-2l-1.4-.6-2.7.9-.8-.6v1.7l-.5.6-.6.7-1.1-1.4.8-1.1-1.5.2-2.2-.7-1.5 1.8-3.7.3-2.2-1.6-2.7-.1-.5 1.2-1.7.4-2.6-1.6-2.7.1-1.7-3-2-1.7.9-2.3-1.7-1.5 2.4-2.8 3.8-.2.7-2.2 4.7.4 2.7-2 2.7-.8 4-.1 4.6 2.1 3.7 1.2 2.8-.5 2.1.3zm-37.5 2.2l.5-.4.6-1.9-1.3-.7 2.4-1 2.1.4.4 1.2 2.3.9-.4.8-2.8.1-1 1-1.8 1.6-1-1.4z" stroke-width=".34" stroke="#333" cursor="pointer" fill="#ffeda0"/><path d="M570.3 252.9l.5.3 9.6 6.1.1 1.8 3.8 3-1.3 3.7.1 1.7 1.7 1.1.1.8-.8 1.8.1.9-.2 1.5.9 1.9 1 3 1 .6-2.2 1.8-2.9 1.1h-1.6l-1 .9-1.8.1-.7.3-3.2-.8-2 .2-.6-4.1-.9-1.4-.5-.8-2.6-.6-1.5-.9-1.6-.5-1.1-.5-1.1-.7-1.4-3.8-1.5-1.7-.5-1.8.3-1.6-.4-2.7 1.1-.2 1-1.1 1-1.5.7-.7v-.9l-.6-.7-.2-1.2.8-.4.2-1.8-1.1-1.7 1-.3h2.9z" stroke-width=".34" stroke="#333" cursor="pointer" fill="#fc4e2a"/><path d="M561 253.4l-1.6 1-.6-.4v-2.2l.6-1.2.2-2.4.5-1.4 1.1-1.6 1-.8.8-1-1-.5.1-3.5 1.1-.8 1.7.7 2.1-.7h1.9l1.6-1.4 1.3 2.1.3 1.5 1.2 3.5-.9 2.2-1.3 1.9-.8 1.3v3.2l-5.4.2H562zM332.7 341.1l1.6-.3 3 2.3.9-.1 2.9 2 2.3 1.6 1.8 2.1-.9 1.4 1 1.7-.8 1.9-2.5 1.7-2-.6-1.3.3-2.5-1.3-1.7.1-1.9-1.6-.1-2 .4-.7-.6-3 .2-3.1z" stroke-width=".34" stroke="#333" cursor="pointer" fill="#ffeda0"/><path d="M72.4 192.4l-.5.6-.6-.5.3-.8-.2-1.1.2-.4.6-.4v-.6l.2-.3h.2l.8.5.5.3.3.4.4 1.1-.1.1-1.2.7zm-.3-4.7l-.9.3-.3-.7-.3-.2v-.2l.4-.3.8.3.6.5zm-1.4-1.6l-.2.4-1.3-.1.2-.4zm-2.2-.4l-.2.2-.2-.1-.9-.1-.1-.7-.1-.1.8-.4.2.2zm-3.9-2l-.4.3-.8-.5.2-.3.5-.3.6.1zm255.2-69.6l.1 1-3 1.4-2.8 1-2.8.9-1.9 1.8-.6.7-.5 1.5.3 1.6.9.1.1-1.1.6.7-.5.8-1.8.5h-1.2l-1.9.5-1.1.1-1.5.2-2.3.8 3.8-.5.5.5-3.7.9H299l.1-.3-1 .8.7.1-1.2 2.2-2.5 2.3.1-.8-.5-.1-.6-.8v1.6l.5.6-.3 1.1-1.1 1.2-2.1 2.4-.2-.1 1.3-2.1-.9-1.1.5-2.5-.9 1.3v1.9l-1.5-.5 1.4 1-.7 2.8.6.2v1.1l-.4 3-2.2 2.2-2.9.9-2.1 1.8-1.3.2-1.5 1.1-.7 1-3.2 2-1.8 1.4-1.6 1.8-.9 2.1v2.1l.3 2.6.7 2.1-.2 1.3.5 3.5-.4 2.1-.3 1.1-.9 1.9-.9.4-1.2-.4-.2-1.3-.9-.7-.9-2.6-.7-2.3-.2-1.2.9-2-.4-1.7-1.4-2.5-.9-.4-2.9 1.3-.4-.1-.9-1.4-1.5-.8-2.9.4-2.2-.3-2 .2-1.2.4.3.8-.4 1.3.4.6-.5.4-.9-.5-1.1.6-1.8-.1-1.6-1.6-2.3.4-1.7-.7-1.6.2-2.3.7-2.9 2.2-2.9 1.3-1.7 1.5-.9 1.3-.5 2.1-.2 1.5.3 1-1 .1-1.7-.7-1.8-.9-.4-1.4-.1-2.2-1.1-1.7-.5-1.7-.8-2.1-1.5-1.2-2.1.1-2.2 2.3-1.9-.9-1.1-.9-.2-1.6-.4-1.6-1.1-1.3-1-1-.6-1.1h-4.4l-.4 1.3h-7.1l-5.1-2.1-3.3-1.5.4-.6-3.3.4-3 .2.2-1.6-1-1.7-1.1-.4.1-.8-1.4-.2-.5-.8-2.3-.3-.4-.5.4-1.6-1.2-3-.2-4.2.4-.7-.6-1-.7-2.5.9-2.5-.5-1.6 1.8-2.5 1.3-2.6.6-2.2 2.5-2.8 1.9-2.7 1.9-2.7 2.1-4 .8-2.5.2-1.4.7-.6 2.7 1-.5 2.8 1.1-.8 1.1-2.4.8-2.4h64.4l.6-1.1h.8l-.4 1.6.4.5 1.6.2 2.1.4 1.9.9 2.1-.3 2.5.7h.8l2.4-.8 1.7 1 1.8 1.2 1.5 1 1.4.9-.1.8.5.3-.3.3h.6l.6-.3-.2.7.3.5h.6l.2.4-.5.5 1.9 1.4-.5 2.7-.6 2.6-1.4 1.7-1.7 1.7-.9 1-.2.3.1.4.7.5h.6l3.4-1.6 2.6-.5 3.7-1.4.2-.3.1-.9-.2-.6 1.3-.5h4.6l1.2-1.2.4-.2 3.3-2.1 1.3-.6h8l.5-.7.8-.2 1.2-.5 1.3-1.3 1.5-2.3 2.6-2.2.5.8 1.8-.5.7.8-1.4 4zm-174-34.7l-3.3 1.1-.4-.8 1.1-1.3 3-1 1.6-.4 1.3.2v.9zm-18.4-7.8l-1.8.4-.7-.5-.4-.7 2.6-.5 1.4.2zm.6-10.5l.6.5 1.6-.3.8.7 1.5.4-.5.2-2.3.6-.8-.6-.2-.5-2 .2-.2-.2zm56.5 11.5l.1 1.8 3.6-1.6 3-.9-.3 1.5.4 1.1.8 1.3-.6 2-.6 3.2 2.1 1.8-1.4 1.8-2.4 1.3-.3-1-1.2-.9 1.5-2.5-.7-2.3 1.2-2.6-1.9-.2-3.3-.1-1.8-.8-1.6-2.9-1.5-.5-2.7-1-3.2.2-2.8-1.2-1.2-1.2-3 .6-1.7 1.9-1.3.2-3.1.6-2.9.9-3 .6 1.5-1.7 3.9-2.7 3.2-.8.2-.7-4.4 1.5-3.5 1.9-5.3 1.9.1 1.4-4.2 2-3.6 1.2-3.1.8-1.9 1.3-5 1.4-2.1 1.4-3.8 1.2-1.3-.3-2.9.8-3.3 1-2.9 1-4.7.8.2-.5 3.9-1.3 3.1-.9 4-1.6 3.1-.3 2.3-1.1 4.9-1.7 1.1-.6 2.6-1 2.8-2.1 2.9-1.7-3.4.9-.2-.5-2.3 1 .2-1.4-1.7 1 .8-1.4-3.5 1.1h-1.3l1.7-1.6 1.6-1-.2-1-3.4.5-.2-1.3-.7-.7 1.9-1.5-.2-1.2 2.8-1.5 3.6-1.6 2.5-1.3 1.9-.2.9.4 3.3-1.3 1.2.2 2.6-.8 1.2-1.2-.5-.5 2.8-1h-1.3l-2.9.6-1.4.6-.8-.6-3.3.3-2.1-.7.6-1-.5-1.6 4.3-1.1 6.2-1.2h1.7l-2.1 1.3 4.4-.1.5-1.7-1.1-1 .4-1.2-.3-1.1-1.5-.9 3-1.3 3.5-.1 4.2-1.1 2.2-1.3 3.7-1.2 2.3-.3 5.3-1.1 1.4.2 4.9-1.3 2.1.5-.3 1.1 1.6-.5 3 .2-1 .6 2.3.4 2.3-.3 3 .8 3.3.3 1.1.3 3-.4 2 .7 1.6.4h0l-11.5 9.6-16.8 15.3 2 .1 1.3.7z" stroke-width=".34" stroke="#333" cursor="pointer" fill="#6bb537"/><path d="M291.2 214.5l-.1.7-1.6.4.8 1.3-.2 1.6-1.2 1.7.8 2.4 1.2-.2.7-2.1-.8-1.1v-2.3l3.4-1.2-.3-1.4 1-1 .8 2.1 1.9.1 1.6 1.7.1 1h2.3l2.9-.3 1.4 1.3 2 .4 1.6-.9v-.8l3.3-.2h3.2l-2.3.9.9 1.4 2.1.2 1.9 1.5.3 2.4h1.4l1 .7-2.1 1.7-.3 1.1.9 1.2-.7.5-1.7.5.1 1.4-.8.8 1.8 2.3.3.9-1 1.1-3 1.1-2 .5-.7.7-2.1-.7-2-.4-.5.3 1.2.7-.2 2.1.4 1.9 2.2.2.1.7-1.9.8-.3 1.3-1.1.5-2 .7-.5.9-2.1.2-1.4-1.6-.8-3-.7-1-1-.7 1.4-1.5-.1-.7-.7-.9-.5-2 .3-2.1.6-1.1.6-1.6-1-.5-1.5.3-1.9-.1-1.1.3-1.8-2.6-1.5-.4-3.4.3-.6-1-.7-.3v-.6l.3-1.1-.1-1.2-.6-.7-.2-1.4-1.4-.2.8-1.8.5-2.1.8-1.1 1.1-.9.7-1.5zM522 336.2l1.3-1.5.9.8.4 1.3 1.2.2 1.6.6 1.3-.2 2.4-1.6.5-11.1.7.4 1.4 2.9-.3 1.8.5 1.1 1.9-.3 1.3-1.3 1.3-1 .7-1.4 1.3-.7 1.1.4 1.2.8 2.1.2 1.6-.7.4-1 .5-1.4 1.4-.3.8-1.1 1-2 2.4-2.3 3.8-2.2 1.1.1 1.2.5.9-.4 1.4.3 1 4.2.6 2.2-.7 3.4.2 1-1.3-.5-.8.2-.3.9-.8 1.1v1.1l1.4 1.6 1.6-.3.6-1.4h1.9l-.8 2.2-.5 2.5-.7 1.4-1.9 1.5-.5.5-1.3 1.5-.8 1.5-1.6 2.2-3.2 3.1-1.9 1.8-2 1.4-2.8 1.2-1.3.1-.4.9-1.5-.5-1.3.6-2.7-.6-1.5.4-1.1-.2-2.6 1.2-2.2.5-1.7 1.1-1.1.1-1-1.1h-.8l-1-1.4-.2.4-.3-.8.1-1.7-.7-2.1.9-.5v-2.3l-1.5-2.8-1.1-2.6h0zm32.3 1.1l-1-.9-1.3.6-1.4 1.2-1.5 1.9 1.7 2.3 1-.3.5-.9 1.5-.5.5-1 .9-1.5z" stroke-width=".34" stroke="#333" cursor="pointer" fill="#fc4e2a"/><path d="M566.9 277.8l1.2 1.4.7 2.5-.5.9-.6 2.4.4 2.5-.9 1.1-.9 2.8 1.4.7-8.1 2.5.2 2.2-2 .4-1.6 1.2-.3 1-1 .3-2.4 2.4-1.5 2-.9.1-.8-.4-2.9-.3-.5-.2v-.3l-1-.7-1.7-.1-2.2.6-1.7-1.8-1.7-2.5.4-9.6h5.5l-.2-1 .4-1.1-.4-1.4.3-1.5-.2-.9h.9l.1 1 1.2-.1 1.7.3.9 1.3 2.1.5 1.6-1 .6 1.6 2 .4.9 1.3 1.1 1.7h2l-.1-3.3-.8.6-1.8-1.2-.7-.5.4-3.1.6-3.5-.6-1.4.8-1.9.7-.3 3.6-.6 1 .4 1.1.7 1.1.5 1.6.5z" stroke-width=".34" stroke="#333" cursor="pointer" fill="#fed976"/><path d="M561.3 317.1l-1.4-.3-.9.4-1.2-.5-1.1-.1-1.6-1.3-2-.5-.7-1.9.1-1.1-1.1-.3-2.9-3.3-.7-1.8-.5-.5-.9-2.4 2.9.3.8.4.9-.1 1.5-2 2.4-2.4 1-.3.3-1 1.6-1.2 2-.4.1 1.1 2.2-.1 1.2.7.5.7 1.3.2 1.3 1-.1 3.8-.7 2.1-.2 2.3.4.9-.4 1.7-.4.3-.8 2.2z" stroke-width=".34" stroke="#333" cursor="pointer" fill="#fc4e2a"/></g></g><g class="mapLegend"><g class="numericMapLegend"><path stroke="#333" stroke-width=".3" d="M243.76 543.6v-3M301.82 543.6v-17.5M321.13 543.6v-3M359.74 543.6v-17.5M398.35 543.6v-3M436.96 543.6v-17.5M475.56 543.6v-3M514.17 543.6v-17.5M552.78 543.6v-3M591.39 543.6v-17.5"/><path fill="#eee" stroke="#333" stroke-width=".3" d="M220 543.6h47.52v10H220z"/><path fill="#6bb537" stroke="#333" stroke-width=".3" d="M282.52 543.6h38.61v10h-38.61z"/><path fill="#ffeda0" stroke="#333" stroke-width=".3" d="M321.13 543.6h38.61v10h-38.61z"/><path fill="#fed976" stroke="#333" stroke-width=".3" d="M359.74 543.6h38.61v10h-38.61z"/><path fill="#feb24c" stroke="#333" stroke-width=".3" d="M398.35 543.6h38.61v10h-38.61z"/><path fill="#fd8d3c" stroke="#333" stroke-width=".3" d="M436.96 543.6h38.61v10h-38.61z"/><path fill="#fc4e2a" stroke="#333" stroke-width=".3" d="M475.56 543.6h38.61v10h-38.61z"/><path fill="#e31a1c" stroke="#333" stroke-width=".3" d="M514.17 543.6h38.61v10h-38.61z"/><path fill="#b10026" stroke="#333" stroke-width=".3" d="M552.78 543.6h38.61v10h-38.61z"/><text x="206.5" y="527.1" font-size="13.5" dominant-baseline="hanging">No reporting</text><text x="298.04" y="512.6" font-size="13.5" dominant-baseline="hanging">0</text><text x="317.35" y="527.1" font-size="13.5" dominant-baseline="hanging">1</text><text x="352.18" y="512.6" font-size="13.5" dominant-baseline="hanging">10</text><text x="390.79" y="527.1" font-size="13.5" dominant-baseline="hanging">50</text><text x="425.62" y="512.6" font-size="13.5" dominant-baseline="hanging">100</text><text x="464.22" y="527.1" font-size="13.5" dominant-baseline="hanging">500</text><text x="493.38" y="512.6" font-size="13.5" dominant-baseline="hanging">10,000</text><text x="531.99" y="527.1" font-size="13.5" dominant-baseline="hanging">50,000</text><text x="562.91" y="512.6" font-size="13.5" dominant-baseline="hanging">&gt;100,000</text></g>/&gt;}</g></g><g class="SourcesFooter" fill="#777"><g class="clickable" fill="#777"><text font-size="12.6" x="15" y="581.6"><tspan x="15" y="581.58">Source: World Health Organization (1969-1988)</tspan></text></g><text font-size="12.6" x="775.4" y="581.6"><tspan x="775.4" y="581.58"><a class="cclogo" href="http://creativecommons.org/licenses/by-sa/4.0/deed.en_US" target="_blank" fill="#777">CC BY-SA</a></tspan></text></g></g></svg>